<svg width="617" height="617" viewBox="0 0 617 617" fill="none" xmlns="http://www.w3.org/2000/svg">
<path fill-rule="evenodd" clip-rule="evenodd" d="M336.015 513.076C303.659 524.683 268.751 527.223 235.051 520.452C178.882 509.164 101.051 485.471 103.748 441.095C107.952 371.91 115.135 366.955 79.3069 291.457C43.4771 215.959 187.419 106.024 276.209 176.199C326.644 216.06 359.685 214.314 390 212.57C413.055 211.242 434.534 209.916 460.887 226.889C483.764 241.624 495.701 270.712 498.906 304.679C506.978 390.202 455.534 470.195 374.676 499.204L336.015 513.076Z" fill="#FEEED3"/>
<path fill-rule="evenodd" clip-rule="evenodd" d="M519.01 331.543C519.01 331.543 519.208 324.401 521.862 323.244C524.515 322.084 528.232 321.747 528.232 321.747L525.338 334.053L519.01 331.543Z" fill="white"/>
<path fill-rule="evenodd" clip-rule="evenodd" d="M519.01 331.543L519.459 331.556L519.462 331.538C519.466 331.343 519.538 329.57 519.918 327.736C520.109 326.821 520.376 325.891 520.738 325.147C520.92 324.774 521.122 324.45 521.343 324.196C521.563 323.943 521.796 323.763 522.041 323.655C523.316 323.098 524.882 322.727 526.122 322.502C526.745 322.39 527.284 322.313 527.666 322.264C527.859 322.239 528.012 322.221 528.116 322.21C528.167 322.205 528.208 322.201 528.235 322.199C528.262 322.196 528.273 322.194 528.273 322.194L528.233 321.747L527.794 321.644L525.019 333.442L519.176 331.125L519.01 331.543L519.459 331.556L519.01 331.543L518.846 331.961L525.655 334.662L528.812 321.241L528.192 321.3C528.183 321.3 527.242 321.385 525.963 321.619C524.682 321.853 523.064 322.228 521.682 322.83C521.273 323.01 520.927 323.295 520.635 323.641C520.125 324.248 519.76 325.037 519.477 325.884C519.057 327.154 518.832 328.556 518.709 329.648C518.583 330.74 518.563 331.52 518.56 331.529L518.554 331.844L518.846 331.961L519.01 331.543Z" fill="black"/>
<path fill-rule="evenodd" clip-rule="evenodd" d="M529.738 231.217L526.904 233.341L526.174 235.08L528.205 234.658L530.019 233.285L529.738 231.217Z" fill="#222831"/>
<path fill-rule="evenodd" clip-rule="evenodd" d="M538.255 245.489L538.691 245.384C538.689 245.375 538.505 244.626 538.19 243.685C538.033 243.213 537.844 242.692 537.626 242.186C537.406 241.683 537.161 241.195 536.885 240.784C536.734 240.563 536.527 240.323 536.271 240.049C535.826 239.57 535.235 238.993 534.597 238.357C533.637 237.406 532.572 236.323 531.759 235.285C531.352 234.768 531.01 234.262 530.777 233.802C530.541 233.343 530.422 232.93 530.422 232.613C530.422 232.588 530.424 232.563 530.424 232.543V232.541C530.446 232.175 530.453 231.833 530.453 231.518C530.453 230.766 530.41 230.152 530.413 229.691C530.41 229.321 530.442 229.053 530.502 228.903C530.532 228.826 530.563 228.779 530.601 228.736C530.642 228.696 530.693 228.658 530.781 228.619L530.844 228.592L530.898 228.548C530.898 228.548 530.925 228.525 530.977 228.48C531.156 228.327 531.626 227.932 532.188 227.482C532.747 227.031 533.401 226.525 533.936 226.154C534.078 226.058 534.258 226.001 534.503 226.001C534.774 226.001 535.114 226.076 535.482 226.226C536.04 226.451 536.662 226.842 537.251 227.341C537.844 227.84 538.404 228.444 538.853 229.091C539.195 229.579 539.424 230.204 539.575 230.909C539.802 231.97 539.849 233.204 539.887 234.395C539.907 234.99 539.925 235.575 539.966 236.125C540.008 236.676 540.073 237.195 540.193 237.662C540.478 238.781 540.914 240.84 541.276 242.608C541.458 243.494 541.622 244.31 541.739 244.903C541.797 245.2 541.844 245.44 541.878 245.606C541.912 245.775 541.93 245.867 541.93 245.867L542.37 245.782L542.402 245.332L538.287 245.042L538.255 245.489L538.691 245.384L538.255 245.489L538.224 245.939L542.923 246.269L542.811 245.694C542.811 245.694 542.521 244.204 542.157 242.429C541.793 240.651 541.357 238.595 541.062 237.44C540.93 236.923 540.867 236.258 540.828 235.518C540.772 234.411 540.775 233.143 540.642 231.923C540.575 231.312 540.473 230.712 540.309 230.145C540.145 229.581 539.918 229.049 539.593 228.579C538.925 227.622 538.062 226.77 537.17 226.143C536.723 225.831 536.269 225.574 535.822 225.392C535.372 225.21 534.932 225.103 534.503 225.103C534.12 225.103 533.743 225.195 533.424 225.415C532.777 225.864 532.004 226.473 531.388 226.972C530.772 227.473 530.316 227.862 530.314 227.864L530.606 228.206L530.428 227.792C530.246 227.869 530.084 227.977 529.952 228.114C529.754 228.321 529.642 228.579 529.586 228.842C529.527 229.107 529.514 229.383 529.514 229.691C529.514 230.201 529.554 230.797 529.554 231.518C529.554 231.819 529.547 232.143 529.527 232.489V232.487C529.525 232.53 529.523 232.572 529.523 232.613C529.525 233.017 529.628 233.42 529.797 233.826C530.093 234.539 530.59 235.267 531.177 235.997C532.055 237.091 533.147 238.188 534.1 239.132C534.574 239.602 535.015 240.035 535.372 240.406C535.73 240.775 536.008 241.089 536.141 241.287C536.37 241.626 536.597 242.071 536.801 242.543C537.107 243.251 537.363 244.02 537.541 244.606C537.631 244.901 537.7 245.15 537.748 245.325C537.77 245.413 537.788 245.48 537.801 245.528C537.806 245.552 537.81 245.568 537.815 245.582L537.819 245.597L537.896 245.916L538.224 245.939L538.255 245.489Z" fill="black"/>
<path fill-rule="evenodd" clip-rule="evenodd" d="M530.684 228.649L530.637 228.379L530.673 228.651L530.684 228.649L530.637 228.379L530.673 228.651L530.671 228.635L530.673 228.651L530.671 228.635L530.673 228.651L530.704 228.649C530.74 228.649 530.799 228.653 530.868 228.673C530.974 228.705 531.1 228.766 531.237 228.925C531.374 229.087 531.522 229.363 531.617 229.842C531.673 230.143 531.819 230.406 532.012 230.606C532.181 230.779 532.381 230.909 532.59 231.013C532.958 231.193 533.365 231.298 533.774 231.397C534.388 231.541 535.014 231.667 535.475 231.88C535.704 231.986 535.891 232.109 536.028 232.255C536.165 232.402 536.262 232.568 536.316 232.806C536.37 233.049 536.608 233.202 536.85 233.148C537.093 233.094 537.246 232.853 537.192 232.611C537.118 232.273 536.97 231.979 536.774 231.741C536.601 231.534 536.397 231.368 536.176 231.235C535.792 231.004 535.365 230.864 534.94 230.75C534.307 230.584 533.671 230.473 533.217 230.303C532.99 230.219 532.812 230.123 532.702 230.022C532.59 229.916 532.531 229.824 532.498 229.669C532.421 229.276 532.307 228.954 532.16 228.691C531.945 228.3 531.657 228.049 531.383 227.914C531.109 227.777 530.859 227.75 530.704 227.75C530.61 227.75 530.547 227.759 530.524 227.763C530.282 227.808 530.118 228.04 530.163 228.285C530.205 228.53 530.439 228.691 530.684 228.649Z" fill="black"/>
<path fill-rule="evenodd" clip-rule="evenodd" d="M532.347 229.368L546.291 218.909C546.291 218.909 547.163 218.669 547.309 220.363L533.679 230.676C533.679 230.676 532.068 230.422 532.347 229.368Z" fill="#222831"/>
<path fill-rule="evenodd" clip-rule="evenodd" d="M550.733 307.367C550.733 307.367 541.942 270.043 541.124 264.431C540.308 258.82 535.58 241.642 535.58 241.642C535.58 241.642 540.791 238.456 542.335 239.905C542.335 239.905 560.005 291.65 560.383 294.917C560.763 298.183 558.742 311.998 550.733 307.367Z" fill="white"/>
<path fill-rule="evenodd" clip-rule="evenodd" d="M550.733 307.367L551.169 307.264C551.169 307.264 551.136 307.118 551.07 306.843C550.587 304.783 548.401 295.47 546.241 286.016C545.16 281.29 544.088 276.526 543.237 272.618C542.812 270.665 542.441 268.926 542.153 267.51C541.868 266.097 541.663 265.007 541.569 264.368C541.362 262.937 540.911 260.809 540.351 258.402C538.675 251.188 536.014 241.525 536.014 241.523L535.58 241.642L535.814 242.024L535.823 242.02C535.915 241.964 536.785 241.442 537.87 240.943C538.412 240.692 539.01 240.447 539.585 240.267C540.16 240.087 540.715 239.975 541.158 239.977C541.365 239.977 541.544 239.999 541.688 240.044C541.834 240.089 541.942 240.152 542.028 240.231L542.335 239.905L541.911 240.049C541.911 240.051 541.98 240.251 542.108 240.631C543.079 243.478 547.452 256.321 551.628 268.831C553.715 275.085 555.754 281.259 557.291 286.059C558.059 288.456 558.702 290.513 559.163 292.061C559.394 292.834 559.581 293.481 559.711 293.978C559.778 294.227 559.83 294.436 559.868 294.605C559.907 294.773 559.929 294.902 559.938 294.969C559.963 295.187 559.978 295.477 559.976 295.814C559.978 296.699 559.877 297.92 559.65 299.239C559.309 301.216 558.675 303.425 557.695 305.095C557.205 305.929 556.632 306.628 555.985 307.106C555.333 307.587 554.617 307.855 553.778 307.857C552.972 307.857 552.039 307.601 550.958 306.978L550.733 307.367L551.169 307.264L550.733 307.367L550.506 307.756C551.688 308.439 552.778 308.756 553.778 308.756C554.47 308.756 555.113 308.603 555.695 308.327C556.711 307.843 557.531 307.005 558.196 305.994C559.19 304.475 559.85 302.551 560.275 300.697C560.695 298.841 560.875 297.061 560.875 295.814C560.875 295.45 560.862 295.133 560.83 294.866C560.814 294.731 560.783 294.573 560.736 294.371C560.558 293.594 560.147 292.178 559.56 290.27C557.506 283.6 553.309 270.978 549.621 260.016C545.935 249.056 542.762 239.759 542.76 239.759L542.724 239.653L542.643 239.577C542.443 239.388 542.203 239.262 541.951 239.186C541.697 239.107 541.432 239.078 541.158 239.078C540.553 239.078 539.906 239.222 539.257 239.429C538.284 239.739 537.315 240.195 536.58 240.572C535.848 240.952 535.353 241.253 535.347 241.258L535.057 241.435L535.147 241.761C535.147 241.761 535.221 242.029 535.351 242.51C535.809 244.191 536.965 248.471 538.095 252.941C538.661 255.177 539.219 257.46 539.679 259.49C540.142 261.517 540.506 263.292 540.681 264.497C540.785 265.218 541.012 266.416 541.331 267.977C542.448 273.438 544.688 283.308 546.65 291.816C548.612 300.324 550.295 307.468 550.295 307.47L550.34 307.659L550.506 307.756L550.733 307.367Z" fill="black"/>
<path fill-rule="evenodd" clip-rule="evenodd" d="M571.858 428.149C571.858 428.149 570.319 434.643 572.235 442.235C573.948 449.014 576.752 480.691 575.698 500.62C575.474 504.874 575.433 509.132 575.613 513.389C575.883 519.76 575.633 529.171 572.161 532.207C566.741 536.946 562.408 536.535 562.408 536.535C562.408 536.535 568.777 527.656 567.705 511.541C567.195 503.885 558.667 461.976 555.568 452.844C552.467 443.713 551.678 432.068 551.678 432.068L571.858 428.149Z" fill="white"/>
<path fill-rule="evenodd" clip-rule="evenodd" d="M571.857 428.149L571.421 428.046C571.415 428.07 570.824 430.569 570.824 434.288C570.824 436.603 571.053 439.387 571.799 442.345C572.152 443.742 572.565 446.298 572.979 449.619C574.219 459.59 575.48 476.514 575.478 490.903C575.478 494.321 575.408 497.593 575.249 500.597C575.118 503.058 575.051 505.523 575.051 507.986C575.051 509.793 575.087 511.6 575.163 513.407C575.21 514.533 575.242 515.755 575.242 517.018C575.244 519.942 575.073 523.092 574.556 525.798C574.298 527.151 573.952 528.389 573.505 529.429C573.057 530.47 572.509 531.306 571.864 531.868C569.597 533.85 567.538 534.904 565.927 535.465C564.318 536.025 563.154 536.095 562.682 536.095C562.599 536.095 562.538 536.092 562.498 536.09L562.457 536.088H562.448L562.444 536.133L562.448 536.088L562.444 536.133L562.448 536.088L562.408 536.535L562.772 536.798C562.81 536.746 568.275 529.104 568.275 515.166C568.275 513.991 568.237 512.773 568.152 511.512C568.087 510.528 567.898 509.031 567.608 507.128C566.597 500.474 564.376 488.88 562.066 477.945C560.911 472.478 559.734 467.174 558.677 462.736C557.617 458.296 556.68 454.729 555.992 452.7C554.455 448.178 553.486 443.005 552.904 438.969C552.612 436.949 552.419 435.216 552.298 433.987C552.237 433.371 552.194 432.884 552.165 432.549C552.151 432.383 552.142 432.255 552.136 432.169C552.129 432.082 552.127 432.039 552.127 432.039L551.677 432.068L551.765 432.511L571.943 428.589L571.857 428.149L571.421 428.046L571.857 428.149L571.772 427.708L551.203 431.704L551.23 432.1C551.23 432.106 551.428 435.028 552.014 439.097C552.601 443.165 553.576 448.381 555.14 452.99C555.522 454.111 555.992 455.758 556.522 457.788C558.376 464.893 560.952 476.682 563.116 487.525C564.199 492.946 565.179 498.132 565.916 502.377C566.284 504.501 566.592 506.389 566.821 507.953C567.051 509.514 567.201 510.757 567.255 511.571C567.338 512.813 567.376 514.011 567.376 515.166C567.376 522.014 566.035 527.301 564.696 530.874C564.026 532.659 563.358 534.016 562.86 534.922C562.61 535.376 562.403 535.717 562.262 535.942C562.19 536.057 562.134 536.14 562.095 536.196C562.077 536.223 562.064 536.243 562.055 536.257L562.044 536.27L562.042 536.272L561.585 536.91L562.365 536.982C562.379 536.985 562.486 536.994 562.682 536.994C563.242 536.994 564.507 536.913 566.224 536.315C567.941 535.717 570.105 534.603 572.457 532.544C573.24 531.859 573.846 530.906 574.329 529.784C575.053 528.101 575.5 526.023 575.774 523.805C576.046 521.589 576.141 519.236 576.141 517.018C576.141 515.739 576.109 514.506 576.062 513.368C575.986 511.575 575.95 509.782 575.95 507.986C575.95 505.539 576.017 503.09 576.147 500.645C576.307 497.62 576.377 494.332 576.377 490.903C576.377 481.276 575.817 470.538 575.073 461.482C574.702 456.954 574.287 452.848 573.871 449.509C573.455 446.167 573.044 443.603 572.671 442.124C571.945 439.257 571.723 436.542 571.723 434.288C571.723 432.477 571.866 430.962 572.01 429.902C572.082 429.374 572.154 428.958 572.208 428.677C572.235 428.535 572.257 428.428 572.273 428.356C572.28 428.322 572.287 428.295 572.289 428.277L572.293 428.257L572.296 428.252L572.455 427.576L571.772 427.708L571.857 428.149Z" fill="black"/>
<path fill-rule="evenodd" clip-rule="evenodd" d="M553.435 439.781V442.387L554.271 446.601C554.271 446.601 568.909 445.313 571.804 442.291C571.804 442.291 571.064 437.981 571.064 437.176C571.064 436.372 553.435 439.781 553.435 439.781Z" fill="#EA8B00"/>
<path fill-rule="evenodd" clip-rule="evenodd" d="M575.572 512.317C575.572 512.317 577.098 511.454 578.621 513.436C580.145 515.42 581.862 535.933 581.862 535.933L580.071 536.281L578.264 526.978C578.264 526.978 578.266 536.872 576.749 537.706C575.233 538.542 557.169 543.729 557.819 540.904C558.471 538.079 562.718 535.515 562.718 535.515C562.718 535.515 565.489 535.755 569.055 533.205C572.621 530.652 576.179 527.8 575.572 512.317Z" fill="#5856D6"/>
<path fill-rule="evenodd" clip-rule="evenodd" d="M575.572 512.317L575.794 512.708L575.675 512.497L575.79 512.71L575.794 512.708L575.675 512.497L575.79 512.71L575.799 512.706C575.851 512.681 576.084 512.577 576.41 512.58C576.637 512.58 576.909 512.625 577.224 512.786C577.536 512.946 577.891 513.225 578.264 513.71C578.311 513.768 578.401 513.937 578.489 514.173C578.655 514.618 578.835 515.312 579.01 516.166C579.32 517.661 579.628 519.652 579.911 521.791C580.338 525 580.714 528.549 580.983 531.29C581.118 532.663 581.226 533.832 581.3 534.661C581.336 535.074 581.365 535.403 581.386 535.627C581.403 535.85 581.415 535.971 581.415 535.971L581.862 535.933L581.777 535.492L580.426 535.755L578.705 526.892L577.815 526.978C577.815 527.009 577.812 529.477 577.626 532.025C577.532 533.299 577.39 534.594 577.183 535.6C577.08 536.101 576.961 536.531 576.833 536.839C576.77 536.989 576.705 537.11 576.648 537.191C576.592 537.272 576.545 537.308 576.532 537.313C576.487 537.337 576.381 537.387 576.239 537.443C575.702 537.661 574.63 538.018 573.28 538.421C571.255 539.027 568.588 539.746 566.041 540.313C564.77 540.596 563.529 540.841 562.414 541.014C561.302 541.187 560.313 541.288 559.567 541.288C559.05 541.29 558.644 541.234 558.43 541.153C558.322 541.115 558.268 541.072 558.257 541.059L558.25 541.052L558.244 541.054H558.253L558.25 541.052L558.244 541.054H558.253V541.045L558.257 541.007V541.005C558.399 540.389 558.751 539.749 559.217 539.144C559.911 538.236 560.85 537.416 561.612 536.832C561.994 536.54 562.331 536.304 562.569 536.144C562.691 536.063 562.787 536.003 562.853 535.96C562.884 535.94 562.909 535.924 562.927 535.915L562.945 535.904L562.949 535.899L562.718 535.515L562.677 535.962C562.691 535.964 562.774 535.971 562.918 535.971C563.689 535.971 566.23 535.778 569.316 533.569C570.143 532.978 570.99 532.355 571.792 531.553C572.997 530.346 574.087 528.728 574.855 526.236C575.626 523.744 576.089 520.38 576.089 515.622C576.089 514.584 576.066 513.476 576.021 512.299L575.572 512.317L575.794 512.708L575.572 512.317L575.122 512.335C575.17 513.501 575.19 514.595 575.19 515.622C575.192 521.89 574.37 525.627 573.179 528.059C572.583 529.277 571.898 530.173 571.156 530.917C570.415 531.661 569.615 532.252 568.792 532.838C565.88 534.922 563.547 535.07 562.918 535.072C562.859 535.072 562.817 535.07 562.787 535.07L562.758 535.068H562.754L562.745 535.2L562.756 535.068H562.754L562.745 535.2L562.756 535.068L562.61 535.054L562.484 535.131C562.471 535.14 561.392 535.789 560.217 536.812C559.63 537.322 559.019 537.926 558.502 538.596C557.987 539.268 557.565 540.007 557.381 540.803L557.383 540.8C557.363 540.881 557.354 540.962 557.354 541.045C557.351 541.158 557.372 541.275 557.414 541.38C557.489 541.569 557.623 541.717 557.772 541.821C557.999 541.978 558.259 542.057 558.556 542.113C558.853 542.164 559.19 542.187 559.567 542.187C560.738 542.187 562.311 541.971 564.053 541.643C566.664 541.149 569.644 540.396 572.089 539.704C573.311 539.358 574.399 539.027 575.242 538.751C575.664 538.612 576.024 538.488 576.311 538.38C576.455 538.326 576.581 538.277 576.689 538.23C576.799 538.185 576.887 538.144 576.965 538.101C577.143 538.003 577.273 537.863 577.383 537.708C577.585 537.418 577.729 537.054 577.857 536.623C578.08 535.87 578.237 534.908 578.356 533.872C578.714 530.773 578.714 527.032 578.714 526.978H578.264L577.821 527.063L579.716 536.809L582.343 536.299L582.309 535.897C582.309 535.895 581.88 530.762 581.26 525.378C580.95 522.683 580.592 519.928 580.215 517.712C580.026 516.604 579.833 515.631 579.633 514.861C579.534 514.474 579.435 514.139 579.329 513.858C579.224 513.577 579.12 513.353 578.979 513.162C578.536 512.589 578.078 512.213 577.633 511.986C577.19 511.757 576.763 511.681 576.41 511.681C575.79 511.681 575.392 511.903 575.349 511.926L575.111 512.061L575.122 512.335L575.572 512.317Z" fill="black"/>
<path fill-rule="evenodd" clip-rule="evenodd" d="M555.057 431.794C555.057 431.794 552.459 437.94 553.088 445.745C553.653 452.716 551.158 484.417 546.812 503.896C545.884 508.054 545.138 512.247 544.61 516.472C543.816 522.8 542.01 532.041 538.081 534.456C531.949 538.232 527.744 537.106 527.744 537.106C527.744 537.106 535.499 529.409 537.117 513.339C537.884 505.705 536.432 462.961 534.89 453.442C533.349 443.922 534.506 432.309 534.506 432.309L555.057 431.794Z" fill="white"/>
<path fill-rule="evenodd" clip-rule="evenodd" d="M555.058 431.794L554.642 431.619C554.631 431.652 552.543 436.589 552.541 443.275C552.541 444.086 552.572 444.924 552.642 445.781C552.694 446.414 552.718 447.28 552.718 448.329C552.718 453.412 552.116 462.889 551.022 473.282C549.925 483.678 548.339 495.002 546.375 503.797C545.444 507.968 544.694 512.175 544.163 516.418C543.77 519.566 543.123 523.438 542.091 526.8C541.577 528.481 540.968 530.032 540.255 531.297C539.545 532.562 538.732 533.531 537.846 534.074C534.073 536.396 531.08 536.814 529.385 536.814C528.882 536.814 528.491 536.776 528.233 536.74C528.105 536.722 528.006 536.704 527.945 536.69C527.914 536.683 527.891 536.679 527.875 536.677L527.862 536.672H527.86L527.81 536.868L527.862 536.672H527.86L527.81 536.868L527.862 536.672L527.745 537.106L528.062 537.425C528.087 537.4 530.053 535.443 532.219 531.463C534.386 527.486 536.75 521.483 537.565 513.384C537.64 512.636 537.693 511.586 537.727 510.276C537.763 508.966 537.779 507.4 537.779 505.633C537.779 498.123 537.482 486.999 537.028 476.783C536.801 471.676 536.534 466.795 536.246 462.707C535.959 458.617 535.651 455.327 535.334 453.37C534.725 449.599 534.538 445.477 534.538 441.893C534.538 439.203 534.642 436.816 534.747 435.102C534.799 434.246 534.851 433.556 534.889 433.084C534.909 432.846 534.925 432.664 534.936 432.54C534.941 432.477 534.945 432.43 534.95 432.401C534.952 432.369 534.954 432.353 534.954 432.353L534.507 432.309L534.518 432.758L555.069 432.243L555.058 431.794L554.642 431.619L555.058 431.794L555.047 431.344L534.098 431.87L534.06 432.264C534.057 432.275 533.639 436.468 533.639 441.893C533.639 445.509 533.826 449.671 534.448 453.513C534.754 455.41 535.064 458.696 535.35 462.77C536.21 475.001 536.88 494.402 536.88 505.633C536.88 507.393 536.864 508.953 536.828 510.252C536.795 511.548 536.741 512.589 536.671 513.294C535.869 521.263 533.545 527.146 531.43 531.034C530.372 532.978 529.365 534.423 528.626 535.378C528.257 535.856 527.954 536.212 527.745 536.445C527.642 536.562 527.561 536.65 527.507 536.706C527.48 536.735 527.46 536.755 527.446 536.769L527.433 536.785L527.428 536.787L526.873 537.337L527.628 537.54C527.662 537.549 528.287 537.713 529.385 537.713C531.228 537.715 534.406 537.25 538.318 534.841C539.395 534.173 540.282 533.081 541.04 531.737C542.174 529.719 543.022 527.113 543.669 524.411C544.316 521.71 544.757 518.912 545.055 516.528C545.584 512.319 546.327 508.139 547.251 503.995C549.226 495.141 550.817 483.795 551.914 473.377C553.013 462.956 553.617 453.475 553.617 448.329C553.617 447.264 553.593 446.383 553.539 445.709C553.471 444.877 553.44 444.064 553.44 443.275C553.44 440.026 553.95 437.19 554.46 435.171C554.714 434.162 554.968 433.358 555.159 432.807C555.253 432.531 555.332 432.32 555.388 432.178C555.415 432.106 555.435 432.055 555.451 432.019L555.467 431.978L555.471 431.969L555.741 431.326L555.047 431.344L555.058 431.794Z" fill="black"/>
<path fill-rule="evenodd" clip-rule="evenodd" d="M534.54 438.751L534.49 442.097L534.65 447.071C534.65 447.071 549.297 448.23 552.655 445.729C552.655 445.729 552.641 441.356 552.776 440.563C552.909 439.769 534.54 438.751 534.54 438.751Z" fill="#EA8B00"/>
<path fill-rule="evenodd" clip-rule="evenodd" d="M544.747 515.409C544.747 515.409 546.394 514.811 547.567 517.02C548.743 519.229 547.03 539.744 547.03 539.744L545.205 539.789L544.967 530.315C544.967 530.315 543.327 540.072 541.693 540.643C540.059 541.214 521.385 543.331 522.495 540.652C523.605 537.976 528.219 536.153 528.219 536.153C528.219 536.153 530.911 536.85 534.852 534.926C538.792 533 542.776 530.778 544.747 515.409Z" fill="#5856D6"/>
<path fill-rule="evenodd" clip-rule="evenodd" d="M544.747 515.409L544.9 515.831L544.801 515.559L544.895 515.834L544.9 515.831L544.801 515.559L544.895 515.834L544.893 515.825L544.895 515.834L544.893 515.825L544.895 515.834C544.904 515.831 545.05 515.784 545.264 515.784C545.491 515.786 545.79 515.831 546.12 516.027C546.448 516.222 546.821 516.573 547.172 517.231C547.21 517.299 547.27 517.483 547.318 517.739C547.39 518.126 547.446 518.676 547.479 519.342C547.513 520.005 547.529 520.787 547.529 521.645C547.531 524.984 547.293 529.506 547.055 533.185C546.938 535.025 546.819 536.657 546.729 537.827C546.686 538.412 546.648 538.881 546.623 539.205C546.596 539.528 546.581 539.706 546.581 539.706L547.03 539.744L547.019 539.295L545.643 539.328L545.417 530.304L544.524 530.238C544.524 530.238 544.518 530.277 544.506 530.346C544.414 530.877 543.985 533.292 543.389 535.625C543.093 536.789 542.756 537.937 542.405 538.803C542.23 539.236 542.052 539.598 541.888 539.848C541.807 539.973 541.731 540.068 541.666 540.129C541.603 540.191 541.556 540.216 541.545 540.218C541.506 540.232 541.425 540.254 541.32 540.279C540.918 540.373 540.149 540.504 539.165 540.639C536.203 541.048 531.234 541.529 527.511 541.529C526.081 541.529 524.832 541.457 523.98 541.29C523.555 541.212 523.23 541.102 523.054 541C522.967 540.951 522.919 540.906 522.906 540.886L522.897 540.87L522.888 540.875L522.897 540.872V540.87L522.888 540.875L522.897 540.872H522.895H522.897H522.895H522.897C522.897 540.87 522.897 540.857 522.91 540.827V540.825C523.151 540.241 523.605 539.668 524.164 539.149C525 538.369 526.063 537.717 526.911 537.268C527.335 537.041 527.706 536.866 527.971 536.749C528.102 536.688 528.207 536.643 528.279 536.614C528.313 536.598 528.34 536.587 528.358 536.58L528.378 536.573L528.385 536.571L528.218 536.153L528.106 536.587C528.138 536.596 528.65 536.724 529.538 536.724C530.762 536.726 532.699 536.477 535.05 535.328C536.037 534.845 537.055 534.333 538.052 533.585C539.551 532.463 540.983 530.811 542.201 528.011C543.423 525.209 544.45 521.256 545.192 515.467L544.747 515.409L544.9 515.831L544.747 515.409L544.302 515.353C543.322 523.002 541.839 527.339 540.158 529.967C539.32 531.281 538.432 532.176 537.513 532.865C536.594 533.555 535.637 534.043 534.655 534.522C532.434 535.605 530.643 535.825 529.538 535.825C529.138 535.825 528.83 535.796 528.623 535.769C528.52 535.753 528.443 535.74 528.394 535.731C528.369 535.726 528.353 535.722 528.342 535.719L528.331 535.717L528.324 535.749L528.331 535.717L528.324 535.749L528.331 535.717L528.189 535.681L528.054 535.735C528.039 535.74 526.866 536.203 525.54 537.014C524.875 537.421 524.171 537.915 523.551 538.49C522.933 539.068 522.394 539.726 522.079 540.481L522.081 540.479C522.03 540.603 521.998 540.735 521.998 540.872C521.996 541.075 522.072 541.277 522.187 541.425C522.288 541.56 522.412 541.661 522.549 541.747C522.789 541.895 523.072 541.996 523.405 542.084C523.899 542.212 524.504 542.295 525.198 542.349C525.89 542.403 526.672 542.427 527.511 542.427C530.212 542.427 533.508 542.182 536.268 541.893C537.648 541.747 538.891 541.591 539.859 541.448C540.345 541.376 540.76 541.308 541.091 541.245C541.257 541.214 541.401 541.185 541.524 541.155C541.65 541.126 541.751 541.099 541.841 541.068C542.032 540.998 542.185 540.884 542.318 540.749C542.567 540.495 542.769 540.158 542.969 539.751C543.313 539.041 543.63 538.113 543.92 537.108C544.79 534.095 545.41 530.396 545.41 530.389L544.967 530.315L544.518 530.326L544.767 540.25L547.444 540.182L547.477 539.78C547.477 539.778 547.715 536.933 547.954 533.243C548.19 529.553 548.428 525.025 548.428 521.645C548.428 520.485 548.401 519.461 548.333 518.643C548.3 518.234 548.257 517.876 548.201 517.573C548.142 517.27 548.077 517.025 547.965 516.809C547.554 516.034 547.064 515.542 546.578 515.254C546.091 514.966 545.619 514.885 545.264 514.888C544.879 514.888 544.628 514.975 544.594 514.986L544.336 515.081L544.302 515.353L544.747 515.409Z" fill="black"/>
<path fill-rule="evenodd" clip-rule="evenodd" d="M519.765 359.011L527.183 307.753L543.012 307.367C543.012 307.367 538.091 359.049 537.608 358.372C537.124 357.698 519.765 359.011 519.765 359.011Z" fill="#222831"/>
<path fill-rule="evenodd" clip-rule="evenodd" d="M522.133 357.393L528.825 309.201L544.655 308.814C544.655 308.814 538.041 357.359 537.558 356.685C537.077 356.008 522.133 357.393 522.133 357.393Z" fill="white"/>
<path fill-rule="evenodd" clip-rule="evenodd" d="M522.133 357.393L522.578 357.453L529.218 309.641L544.664 309.264L544.655 308.814L544.207 308.753C544.207 308.753 544.183 308.94 544.136 309.291C543.776 311.92 542.156 323.754 540.558 334.929C539.76 340.518 538.967 345.941 538.342 349.965C538.03 351.977 537.758 353.637 537.551 354.793C537.446 355.37 537.358 355.82 537.288 356.116C537.255 356.262 537.225 356.375 537.207 356.429L537.198 356.455L537.196 356.458L537.43 356.561L537.225 356.411C537.198 356.449 537.198 356.458 537.196 356.458L537.43 356.561L537.225 356.411L537.551 356.651L537.311 356.325C537.261 356.363 537.241 356.39 537.225 356.411L537.551 356.651L537.311 356.325L537.569 356.676V356.242C537.446 356.242 537.358 356.291 537.311 356.325L537.569 356.676V356.242V356.68L537.807 356.312C537.751 356.273 537.664 356.24 537.569 356.242V356.68L537.807 356.312L537.574 356.671L537.92 356.415C537.897 356.386 537.864 356.348 537.807 356.312L537.574 356.671L537.92 356.415L537.558 356.685L537.924 356.422C537.843 356.314 537.762 356.269 537.695 356.235C537.578 356.179 537.473 356.154 537.351 356.132C537.171 356.1 536.958 356.08 536.704 356.067C536.45 356.053 536.156 356.049 535.825 356.049C533.776 356.049 530.353 356.273 527.43 356.496C524.508 356.721 522.093 356.943 522.09 356.943L522.133 357.393L522.578 357.453L522.133 357.393L522.173 357.84C522.176 357.84 522.324 357.826 522.596 357.802C523.546 357.716 525.978 357.503 528.612 357.309C531.243 357.118 534.084 356.948 535.825 356.948C536.311 356.948 536.711 356.961 536.983 356.988C537.117 357.002 537.221 357.02 537.273 357.033L537.3 357.042H537.302L537.322 356.993L537.3 357.042H537.302L537.322 356.993L537.3 357.042L537.43 356.775L537.194 356.945C537.25 357.02 537.288 357.035 537.3 357.042L537.43 356.775L537.194 356.945V356.948L537.198 356.952C537.223 356.986 537.259 357.026 537.32 357.067C537.38 357.105 537.47 357.141 537.569 357.141C537.673 357.141 537.758 357.105 537.812 357.071C537.866 357.038 537.897 357.006 537.92 356.979C537.967 356.927 537.985 356.891 538.001 356.86C538.032 356.799 538.048 356.75 538.066 356.694C538.102 356.584 538.135 356.447 538.176 356.273C538.327 355.606 538.544 354.381 538.814 352.73C540.7 341.177 545.1 308.877 545.1 308.875L545.169 308.351L528.432 308.76L521.609 357.891L522.173 357.84L522.133 357.393Z" fill="black"/>
<path fill-rule="evenodd" clip-rule="evenodd" d="M525.673 360.031L531.828 311.598L547.657 311.212C547.657 311.212 540.358 359.916 539.875 359.242C539.392 358.566 525.673 360.031 525.673 360.031Z" fill="#0B065A"/>
<path fill-rule="evenodd" clip-rule="evenodd" d="M565.55 260.607C565.55 260.607 558.556 262.247 556.325 267.333C553.621 273.494 545.749 273.272 546.439 274.351C547.127 275.427 549.644 278.357 549.644 278.357C549.644 278.357 545.837 286.861 548.185 288.814C550.534 290.767 559.244 293.171 559.244 293.171L555.857 301.207L566.152 304.787L572.208 291.49C572.208 291.49 578.858 264.537 565.55 260.607Z" fill="white"/>
<path fill-rule="evenodd" clip-rule="evenodd" d="M565.55 260.607L565.447 260.168C565.424 260.175 563.647 260.591 561.568 261.663C560.53 262.2 559.415 262.901 558.408 263.802C557.401 264.703 556.503 265.809 555.914 267.153C555.296 268.555 554.404 269.604 553.399 270.418C551.891 271.634 550.125 272.306 548.718 272.755C548.013 272.982 547.401 273.151 546.938 273.319C546.705 273.405 546.507 273.485 546.334 273.598C546.246 273.656 546.161 273.724 546.084 273.823C546.01 273.919 545.945 274.065 545.947 274.22C545.947 274.364 545.997 274.494 546.06 274.591C546.248 274.885 546.538 275.274 546.875 275.708C547.884 277 549.302 278.647 549.305 278.652L549.644 278.357L549.235 278.173C549.231 278.182 548.671 279.434 548.107 281.099C547.826 281.931 547.543 282.868 547.329 283.805C547.118 284.744 546.972 285.683 546.972 286.537C546.972 287.065 547.026 287.562 547.168 288.009C547.307 288.456 547.541 288.861 547.898 289.16C548.226 289.432 548.642 289.695 549.12 289.955C549.959 290.414 550.995 290.866 552.087 291.29C555.359 292.567 559.116 293.603 559.123 293.605L559.244 293.171L558.828 292.998L555.258 301.475L566.393 305.347L572.635 291.639L572.647 291.598C572.649 291.578 574.319 284.823 574.319 277.53C574.319 273.881 573.903 270.092 572.622 266.926C571.981 265.341 571.121 263.914 569.979 262.748C568.838 261.584 567.413 260.687 565.678 260.175L565.563 260.141L565.447 260.168L565.55 260.607L565.422 261.038C567.015 261.508 568.294 262.314 569.336 263.377C570.901 264.971 571.928 267.155 572.557 269.627C573.188 272.097 573.422 274.845 573.42 277.53C573.42 281.11 573.008 284.578 572.595 287.149C572.39 288.434 572.184 289.495 572.029 290.232C571.952 290.603 571.887 290.89 571.842 291.086C571.82 291.185 571.802 291.259 571.79 291.308C571.779 291.358 571.772 291.382 571.772 291.382L572.208 291.49L571.799 291.304L565.914 304.228L556.458 300.94L559.855 292.875L559.363 292.74C559.363 292.74 559.33 292.731 559.267 292.713C558.79 292.578 556.606 291.955 554.278 291.14C553.114 290.733 551.911 290.277 550.875 289.814C550.356 289.582 549.878 289.349 549.469 289.122C549.057 288.895 548.716 288.67 548.473 288.468C548.278 288.306 548.129 288.068 548.024 287.74C547.92 287.414 547.871 287.003 547.871 286.537C547.871 285.787 548.004 284.901 548.206 284.005C548.511 282.659 548.977 281.288 549.363 280.256C549.556 279.742 549.729 279.31 549.855 279.011C549.918 278.861 549.968 278.742 550.004 278.661C550.019 278.623 550.033 278.591 550.042 278.571C550.051 278.551 550.055 278.542 550.055 278.542L550.172 278.281L549.986 278.065C549.986 278.065 549.947 278.02 549.878 277.937C549.633 277.652 549.01 276.919 548.377 276.144C548.06 275.755 547.741 275.357 547.464 274.998C547.188 274.64 546.954 274.321 546.817 274.108L546.642 274.22H546.846C546.846 274.16 546.821 274.115 546.817 274.108L546.642 274.22H546.846H546.59L546.819 274.337C546.833 274.31 546.846 274.265 546.846 274.22H546.59L546.819 274.337L546.696 274.274L546.795 274.373C546.795 274.373 546.806 274.362 546.819 274.337L546.696 274.274L546.795 274.373L546.821 274.353C546.891 274.303 547.091 274.214 547.359 274.124C547.833 273.96 548.529 273.769 549.327 273.503C550.525 273.103 551.965 272.535 553.316 271.6C554.664 270.667 555.927 269.362 556.736 267.512C557.262 266.315 558.076 265.308 559.008 264.472C560.406 263.216 562.076 262.353 563.39 261.809C564.049 261.537 564.62 261.344 565.022 261.22C565.224 261.159 565.384 261.114 565.491 261.085C565.545 261.072 565.586 261.06 565.615 261.054L565.644 261.045H565.653L565.55 260.607L565.422 261.038L565.55 260.607Z" fill="black"/>
<path fill-rule="evenodd" clip-rule="evenodd" d="M564.929 261.025C564.929 261.025 564.352 264.332 565.462 267.854C566.574 271.375 564.24 281.164 566.606 281.286C568.974 281.405 566.574 260.629 566.574 260.629L564.929 261.025Z" fill="#FCAA23"/>
<path fill-rule="evenodd" clip-rule="evenodd" d="M566.183 285.713C566.183 285.713 570.772 288.225 572.761 283.522C574.752 278.818 573.831 287.544 571.303 292.913C568.777 298.281 567.069 301.814 567.069 301.814C567.069 301.814 565.667 302.097 563.819 301.83C563.819 301.83 572.381 288.848 569.61 287.967C566.84 287.086 564.92 286.515 566.183 285.713Z" fill="#FCAA23"/>
<path fill-rule="evenodd" clip-rule="evenodd" d="M559.15 293.612C559.152 293.612 560.078 293.809 561.262 294.036C562.449 294.266 563.889 294.522 564.939 294.648C565.186 294.677 565.409 294.499 565.438 294.254C565.467 294.007 565.292 293.782 565.044 293.755C564.042 293.636 562.608 293.38 561.433 293.153C560.844 293.041 560.321 292.935 559.943 292.859C559.754 292.821 559.604 292.789 559.498 292.767C559.395 292.744 559.336 292.733 559.336 292.733C559.094 292.681 558.856 292.836 558.804 293.079C558.752 293.322 558.907 293.56 559.15 293.612Z" fill="black"/>
<path fill-rule="evenodd" clip-rule="evenodd" d="M570.194 295.911C570.194 295.911 577.078 299.178 586.008 288.331C586.008 288.331 599.024 267.667 570.792 257.193C569.956 256.883 569.051 256.797 568.201 256.989C566.99 257.263 565.628 258.126 565.549 260.607C565.549 260.607 565.34 265.209 567.003 269.742C568.666 274.276 565.46 281.164 566.826 281.432C568.19 281.697 571.397 279.216 572.159 283.573C572.923 287.928 573.239 289.225 570.028 296.279" fill="#222831"/>
<path fill-rule="evenodd" clip-rule="evenodd" d="M566.97 281.856H566.972C566.992 281.85 567.273 281.757 567.687 281.668C568.1 281.578 568.646 281.492 569.192 281.492C569.774 281.492 570.347 281.593 570.77 281.843C570.983 281.969 571.161 282.128 571.305 282.342C571.448 282.555 571.561 282.827 571.619 283.189C571.646 283.346 571.657 283.495 571.657 283.632C571.657 284.014 571.568 284.31 571.421 284.562C571.309 284.749 571.161 284.91 570.979 285.052C570.707 285.265 570.354 285.427 569.961 285.535C569.565 285.643 569.132 285.692 568.702 285.692C568.298 285.692 567.898 285.647 567.545 285.567C567.192 285.483 566.887 285.364 566.673 285.234C566.462 285.106 566.185 285.171 566.055 285.385C565.927 285.596 565.994 285.872 566.206 286.003C566.529 286.198 566.918 286.342 567.343 286.441C567.767 286.54 568.23 286.591 568.702 286.591C569.59 286.589 570.514 286.411 571.262 285.951C571.633 285.719 571.961 285.411 572.195 285.02C572.426 284.629 572.559 284.158 572.556 283.632C572.556 283.443 572.541 283.247 572.507 283.043C572.43 282.573 572.273 282.169 572.051 281.838C571.716 281.342 571.239 281.023 570.736 280.838C570.233 280.654 569.7 280.596 569.192 280.593C568.534 280.593 567.914 280.697 567.453 280.798C566.992 280.899 566.693 281.002 566.682 281.005C566.446 281.086 566.32 281.339 566.399 281.575C566.48 281.811 566.734 281.937 566.97 281.856Z" fill="black"/>
<path fill-rule="evenodd" clip-rule="evenodd" d="M567.93 262.896C567.93 262.896 567.945 262.899 567.977 262.903C568.483 262.971 572.91 263.649 577.186 266.488C579.325 267.906 581.429 269.861 582.997 272.551C584.566 275.241 585.602 278.668 585.604 283.043C585.604 283.549 585.589 284.07 585.562 284.603C585.555 284.726 585.649 284.832 585.773 284.838C585.896 284.845 586.002 284.751 586.009 284.627C586.038 284.086 586.054 283.558 586.054 283.043C586.054 278.452 584.926 274.858 583.229 272.061C580.681 267.861 576.869 265.461 573.698 264.11C570.53 262.759 567.997 262.452 567.984 262.452C567.86 262.436 567.748 262.523 567.734 262.647C567.719 262.771 567.806 262.883 567.93 262.896Z" fill="white"/>
<path fill-rule="evenodd" clip-rule="evenodd" d="M569.631 271.153C569.635 271.175 570.136 273.494 572.249 276.555C574.363 279.614 578.091 283.411 584.534 286.38C584.647 286.432 584.781 286.382 584.833 286.27C584.885 286.158 584.835 286.023 584.723 285.971C578.352 283.036 574.691 279.299 572.619 276.299C571.583 274.8 570.945 273.483 570.565 272.546C570.377 272.076 570.253 271.703 570.177 271.447C570.136 271.319 570.112 271.22 570.094 271.155C570.085 271.121 570.08 271.097 570.076 271.081L570.071 271.063V271.058C570.044 270.937 569.925 270.861 569.804 270.885C569.682 270.912 569.606 271.031 569.631 271.153Z" fill="white"/>
<path fill-rule="evenodd" clip-rule="evenodd" d="M573.146 292.45C573.254 292.486 573.696 292.616 574.447 292.616C576.054 292.618 579.045 292.012 583.076 288.639C583.173 288.558 583.184 288.416 583.105 288.322C583.025 288.225 582.883 288.214 582.789 288.292C578.816 291.614 575.939 292.167 574.447 292.167C573.75 292.169 573.352 292.045 573.292 292.025C573.173 291.985 573.047 292.048 573.006 292.164C572.966 292.281 573.029 292.409 573.146 292.45Z" fill="white"/>
<path fill-rule="evenodd" clip-rule="evenodd" d="M569.516 266.768C569.516 266.771 570.599 269.218 572.107 271.917C572.86 273.265 573.721 274.679 574.606 275.881C575.496 277.085 576.406 278.083 577.298 278.605C577.404 278.668 577.543 278.632 577.604 278.524C577.667 278.416 577.631 278.279 577.523 278.216C576.732 277.757 575.838 276.796 574.968 275.616C573.662 273.845 572.399 271.584 571.465 269.768C570.997 268.861 570.613 268.065 570.345 267.497C570.211 267.211 570.105 266.984 570.035 266.827C569.963 266.67 569.925 266.586 569.925 266.586C569.876 266.472 569.743 266.42 569.631 266.472C569.516 266.521 569.464 266.654 569.516 266.768Z" fill="white"/>
<path fill-rule="evenodd" clip-rule="evenodd" d="M559.381 293.405C559.381 293.405 564.258 294.389 565.008 294.378C565.761 294.369 563.114 297.07 558.55 295.533L559.381 293.405Z" fill="#FCAA23"/>
<path fill-rule="evenodd" clip-rule="evenodd" d="M557.579 272.153C557.25 272.593 556.727 272.762 556.408 272.526C556.091 272.29 556.098 271.739 556.426 271.297C556.754 270.856 557.277 270.688 557.594 270.924C557.913 271.16 557.907 271.71 557.579 272.153Z" fill="black"/>
<path fill-rule="evenodd" clip-rule="evenodd" d="M558.223 267.344L558.25 267.218L558.223 267.344L558.25 267.218L558.223 267.344C558.237 267.346 558.954 267.508 559.693 267.977C560.064 268.211 560.439 268.521 560.747 268.919C561.055 269.319 561.297 269.804 561.408 270.418C561.453 270.663 561.686 270.825 561.929 270.782C562.174 270.737 562.336 270.503 562.293 270.261C562.154 269.485 561.835 268.849 561.441 268.346C560.846 267.589 560.093 267.126 559.491 266.847C558.888 266.566 558.432 266.47 558.407 266.465C558.165 266.413 557.927 266.568 557.877 266.811C557.825 267.056 557.98 267.294 558.223 267.344Z" fill="black"/>
<path fill-rule="evenodd" clip-rule="evenodd" d="M549.723 282.362C549.723 282.362 551.626 284.958 554.507 284.054L549.723 282.362Z" fill="white"/>
<path fill-rule="evenodd" clip-rule="evenodd" d="M549.359 282.629C549.377 282.652 549.745 283.153 550.415 283.661C550.75 283.915 551.161 284.173 551.642 284.367C552.125 284.562 552.68 284.695 553.291 284.695C553.718 284.695 554.17 284.629 554.642 284.481C554.878 284.407 555.01 284.155 554.936 283.919C554.862 283.681 554.608 283.551 554.372 283.625C553.988 283.744 553.628 283.796 553.291 283.796C552.81 283.796 552.372 283.692 551.979 283.533C551.39 283.297 550.909 282.933 550.579 282.627C550.415 282.477 550.287 282.34 550.204 282.243C550.161 282.193 550.129 282.155 550.109 282.131L550.089 282.101L550.085 282.097L550.064 282.113L550.085 282.097L550.064 282.113L550.085 282.097C549.938 281.897 549.655 281.854 549.455 282C549.255 282.148 549.213 282.429 549.361 282.629" fill="black"/>
<path fill-rule="evenodd" clip-rule="evenodd" d="M592.679 292.149C591.569 294.677 588.753 295.886 586.391 294.848C584.029 293.812 583.013 290.922 584.124 288.394C585.234 285.865 588.047 284.659 590.409 285.695C592.771 286.733 593.787 289.623 592.679 292.149Z" fill="#222831"/>
<path fill-rule="evenodd" clip-rule="evenodd" d="M557.06 296.16C557.06 296.16 562.97 300.783 568.849 298.439C569.397 298.221 569.979 298.672 569.905 299.257C569.698 300.854 568.856 304.046 569.647 304.616C570.853 305.486 578.249 318.03 575.276 331.783C572.303 345.536 568.5 356.685 568.5 356.685L533.507 354.802C533.507 354.802 528.439 354.368 523.082 348.143C519.441 343.911 517.769 335.732 518.98 331.783C519.43 330.318 522.758 329.673 523.857 330.743L528.729 335.547C528.729 335.547 532.781 310.648 538.428 308.041C544.073 305.437 552.905 305.58 554.352 302.976C555.799 300.369 556.215 295.153 557.06 296.16Z" fill="white"/>
<path fill-rule="evenodd" clip-rule="evenodd" d="M557.059 296.16L556.783 296.515C556.801 296.529 557.763 297.281 559.307 298.034C560.851 298.789 562.976 299.551 565.327 299.551C566.52 299.551 567.768 299.353 569.015 298.857C569.06 298.839 569.098 298.832 569.136 298.832C569.219 298.832 569.302 298.868 569.363 298.929C569.426 298.989 569.46 299.063 569.46 299.156L569.457 299.203V299.201C569.39 299.726 569.242 300.47 569.111 301.237C568.981 302.005 568.864 302.796 568.864 303.466C568.864 303.765 568.887 304.041 568.954 304.297C568.988 304.425 569.035 304.549 569.102 304.666C569.17 304.783 569.262 304.895 569.383 304.98C569.399 304.992 569.464 305.05 569.545 305.142C569.7 305.317 569.92 305.614 570.174 306.005C571.071 307.383 572.415 309.958 573.527 313.286C574.642 316.617 575.527 320.702 575.525 325.118C575.525 327.246 575.32 329.453 574.837 331.689C573.354 338.552 571.662 344.768 570.343 349.264C569.682 351.514 569.116 353.334 568.714 354.59C568.514 355.22 568.352 355.707 568.244 356.037C568.19 356.202 568.147 356.327 568.118 356.413C568.091 356.496 568.075 356.539 568.075 356.539L568.5 356.685L568.525 356.235L533.529 354.352L533.506 354.802L533.544 354.354L533.54 354.384L533.544 354.354L533.54 354.384L533.544 354.354C533.508 354.35 532.272 354.228 530.401 353.357C528.529 352.485 526.018 350.864 523.423 347.849C522.052 346.26 520.946 344.046 520.196 341.716C519.441 339.383 519.039 336.934 519.039 334.878C519.039 333.734 519.164 332.713 519.409 331.916C519.454 331.767 519.555 331.612 519.719 331.46C519.962 331.233 520.342 331.024 520.778 330.882C521.212 330.738 521.699 330.66 522.146 330.662C522.459 330.66 522.751 330.698 522.994 330.77C523.234 330.842 523.421 330.947 523.542 331.066L523.54 331.064L529.032 336.478L529.171 335.619C529.171 335.619 529.187 335.525 529.219 335.343C529.45 333.979 530.538 327.792 532.223 321.662C533.066 318.596 534.059 315.542 535.16 313.127C535.711 311.92 536.288 310.87 536.875 310.066C537.461 309.259 538.061 308.704 538.616 308.45C539.985 307.816 541.569 307.344 543.199 306.953C545.644 306.369 548.181 305.974 550.271 305.473C551.316 305.223 552.25 304.947 553.017 304.596C553.399 304.419 553.743 304.223 554.035 303.994C554.327 303.765 554.572 303.502 554.745 303.194C555.1 302.556 555.383 301.798 555.628 301.021C555.997 299.854 556.275 298.634 556.527 297.722C556.653 297.266 556.772 296.886 556.877 296.652C556.929 296.538 556.979 296.459 556.997 296.439L557.001 296.434L556.895 296.317L556.961 296.459C556.988 296.448 556.999 296.436 557.001 296.434L556.895 296.317L556.961 296.459L556.85 296.216V296.484C556.893 296.484 556.934 296.472 556.961 296.459L556.85 296.216V296.484V296.236L556.722 296.45C556.743 296.463 556.792 296.484 556.85 296.484V296.236L556.722 296.45L556.774 296.362L556.707 296.439L556.722 296.45L556.774 296.362L556.707 296.439L556.716 296.45L556.745 296.486L556.783 296.515L557.059 296.16L557.406 295.872C557.345 295.8 557.275 295.735 557.183 295.679C557.093 295.623 556.974 295.582 556.85 295.585C556.682 295.582 556.536 295.654 556.439 295.733C556.347 295.807 556.282 295.888 556.226 295.973C556.12 296.133 556.039 296.313 555.961 296.522C555.824 296.888 555.695 297.342 555.561 297.859C555.356 298.63 555.138 299.531 554.877 300.405C554.617 301.277 554.313 302.12 553.958 302.756C553.828 302.996 553.59 303.232 553.241 303.455C552.63 303.848 551.691 304.185 550.558 304.475C548.857 304.915 546.724 305.273 544.547 305.731C542.369 306.192 540.147 306.753 538.239 307.634C537.419 308.016 536.7 308.749 536.021 309.715C534.839 311.405 533.785 313.846 532.846 316.569C531.437 320.653 530.299 325.374 529.511 329.08C528.722 332.783 528.286 335.471 528.284 335.475L528.729 335.547L529.043 335.228L524.171 330.424L524.169 330.421C523.913 330.172 523.594 330.012 523.248 329.909C522.904 329.806 522.531 329.763 522.146 329.763C521.414 329.763 520.643 329.925 519.987 330.228C519.659 330.381 519.358 330.57 519.106 330.803C518.857 331.035 518.654 331.318 518.551 331.653C518.268 332.57 518.14 333.669 518.14 334.878C518.14 337.048 518.56 339.574 519.34 341.992C520.122 344.408 521.263 346.716 522.742 348.435C525.461 351.597 528.124 353.305 530.115 354.215C532.106 355.127 533.425 355.246 533.466 355.249L533.473 355.251L568.817 357.15L568.927 356.829C568.929 356.82 572.736 345.66 575.716 331.88C576.215 329.574 576.424 327.304 576.424 325.118C576.424 319.587 575.078 314.592 573.606 310.882C572.869 309.025 572.1 307.491 571.449 306.365C571.123 305.803 570.824 305.342 570.57 304.994C570.444 304.819 570.327 304.67 570.222 304.549C570.114 304.428 570.019 304.333 569.909 304.252C569.907 304.25 569.896 304.243 569.88 304.214C569.853 304.169 569.819 304.079 569.797 303.949C569.774 303.819 569.763 303.655 569.763 303.466C569.761 302.899 569.869 302.138 569.997 301.389C570.127 300.634 570.273 299.893 570.35 299.315V299.313C570.356 299.261 570.359 299.207 570.359 299.156C570.361 298.812 570.215 298.502 569.992 298.284C569.77 298.068 569.466 297.935 569.136 297.933C568.986 297.933 568.83 297.962 568.682 298.023C567.552 298.472 566.421 298.652 565.327 298.652C563.174 298.654 561.165 297.944 559.702 297.227C558.97 296.87 558.374 296.511 557.963 296.243C557.758 296.111 557.599 295.998 557.493 295.922C557.439 295.884 557.401 295.854 557.374 295.834L557.345 295.812L557.338 295.807L557.059 296.16L557.406 295.872L557.059 296.16Z" fill="black"/>
<path fill-rule="evenodd" clip-rule="evenodd" d="M546.96 328.668C546.96 328.668 546.956 328.693 546.947 328.74C546.817 329.486 545.648 335.943 543.383 342.179C542.252 345.296 540.846 348.356 539.183 350.606C538.351 351.732 537.459 352.651 536.522 353.28C535.58 353.912 534.605 354.253 533.562 354.255C533.201 354.253 532.83 354.213 532.448 354.125C532.205 354.069 531.965 354.219 531.908 354.462C531.854 354.705 532.005 354.945 532.245 355.002C532.693 355.103 533.131 355.154 533.562 355.152C534.848 355.154 536.043 354.707 537.124 353.957C538.07 353.3 538.936 352.413 539.736 351.368C541.131 349.536 542.327 347.217 543.345 344.765C544.87 341.087 545.992 337.107 546.736 334.042C547.479 330.976 547.846 328.826 547.846 328.819C547.888 328.574 547.722 328.343 547.477 328.3C547.232 328.259 547.001 328.424 546.96 328.668Z" fill="black"/>
<path fill-rule="evenodd" clip-rule="evenodd" d="M568.5 356.685C568.5 356.685 567.091 366.817 569.552 373.912C572.012 381.004 575.927 383.467 577.271 395.627C578.59 407.578 573.466 438.479 573.466 438.479C573.466 438.479 546.21 443.751 529.176 437.1C529.176 437.1 527.715 385.204 530.465 371.739C533.216 358.276 533.506 354.802 533.506 354.802L568.5 356.685Z" fill="#FCAA23"/>
<path fill-rule="evenodd" clip-rule="evenodd" d="M568.5 356.685L568.056 356.622C568.056 356.635 567.651 359.541 567.651 363.345C567.651 366.667 567.954 370.671 569.127 374.058C569.752 375.86 570.471 377.366 571.208 378.793C572.319 380.937 573.469 382.896 574.469 385.447C575.469 387.998 576.323 391.148 576.824 395.676C576.973 397.016 577.038 398.611 577.038 400.382C577.04 407.263 576.035 416.78 575.031 424.565C574.53 428.457 574.026 431.918 573.651 434.405C573.462 435.65 573.305 436.65 573.195 437.34C573.141 437.684 573.098 437.951 573.069 438.131C573.04 438.311 573.024 438.405 573.024 438.405L573.467 438.479L573.381 438.037C573.381 438.037 573.343 438.046 573.267 438.059C572.114 438.275 562.431 440.012 551.361 440.012C543.916 440.014 535.841 439.221 529.34 436.682L529.176 437.1L529.626 437.086C529.626 437.086 529.619 436.873 529.61 436.466C529.536 433.625 529.237 421.418 529.237 408.128C529.237 400.982 529.324 393.521 529.576 387.036C529.702 383.795 529.871 380.795 530.088 378.206C530.306 375.615 530.578 373.431 530.906 371.829C533.657 358.357 533.949 354.873 533.954 354.84L533.507 354.802L533.482 355.251L568.478 357.132L568.5 356.685L568.056 356.622L568.5 356.685L568.525 356.235L533.093 354.33L533.057 354.766V354.772C533.041 354.959 532.689 358.617 530.026 371.649C529.686 373.312 529.414 375.519 529.192 378.13C528.531 385.957 528.338 397.396 528.338 408.128C528.338 423.333 528.727 437.111 528.727 437.113L528.736 437.41L529.012 437.518C535.689 440.124 543.851 440.909 551.361 440.911C563.267 440.911 573.537 438.922 573.552 438.92L573.86 438.861L573.91 438.554C573.912 438.549 574.916 432.482 575.923 424.679C576.93 416.875 577.937 407.344 577.937 400.382C577.937 398.589 577.871 396.964 577.719 395.578C577.044 389.456 575.707 385.73 574.235 382.674C573.501 381.148 572.736 379.788 572.008 378.379C571.278 376.97 570.584 375.51 569.977 373.764C568.856 370.539 568.548 366.611 568.55 363.345C568.55 361.476 568.649 359.822 568.748 358.638C568.797 358.047 568.849 357.57 568.885 357.244C568.903 357.082 568.918 356.957 568.93 356.871C568.936 356.831 568.939 356.797 568.943 356.777C568.945 356.757 568.948 356.745 568.948 356.745L569.015 356.26L568.525 356.235L568.5 356.685Z" fill="black"/>
<path fill-rule="evenodd" clip-rule="evenodd" d="M529.154 341.239L529.127 341.248L529.154 341.239L529.127 341.248L529.154 341.239C529.142 341.212 528.812 340.221 528.812 338.606C528.812 337.772 528.9 336.772 529.165 335.651C529.223 335.41 529.073 335.167 528.832 335.111C528.59 335.053 528.347 335.203 528.291 335.444C528.007 336.639 527.913 337.709 527.913 338.606C527.913 340.399 528.291 341.498 528.304 341.534C528.385 341.768 528.641 341.893 528.875 341.812C529.111 341.729 529.234 341.473 529.154 341.239Z" fill="black"/>
<path fill-rule="evenodd" clip-rule="evenodd" d="M547.657 328.745C547.657 328.745 548.417 328.406 548.56 330.385C548.706 332.363 546.486 350.99 549.574 355.188L535.967 354.705C535.967 354.705 540.888 352.727 544.122 342.689C547.354 332.653 547.657 328.745 547.657 328.745Z" fill="#FCAA23"/>
<path fill-rule="evenodd" clip-rule="evenodd" d="M63.0623 511.926V512.375H94.1977C94.7056 512.375 95.119 511.964 95.119 511.454V480.318C95.119 479.808 94.7056 479.397 94.1977 479.397H63.0623C62.5522 479.397 62.1409 479.808 62.1387 480.318V511.454C62.1409 511.964 62.5522 512.375 63.0623 512.375V511.476L63.0376 511.454V480.318L63.0623 480.296H94.1977L94.2201 480.318V511.454L94.1977 511.476H63.0623V511.926Z" fill="black"/>
<path fill-rule="evenodd" clip-rule="evenodd" d="M76.9254 506.611C76.2018 506.611 75.5141 506.29 75.0512 505.728L62.9588 491.125C62.1004 490.092 62.2442 488.557 63.2802 487.698C64.3162 486.842 65.8488 486.984 66.7072 488.022L76.6625 500.045L98.137 466.163C98.8561 465.026 100.362 464.693 101.494 465.41C102.629 466.129 102.966 467.633 102.247 468.768L78.9816 505.478C78.5636 506.137 77.8558 506.555 77.0805 506.606C77.0288 506.609 76.9771 506.611 76.9254 506.611Z" fill="#FCAA23"/>
<path fill-rule="evenodd" clip-rule="evenodd" d="M180.846 431.798V432.248H211.982C212.492 432.248 212.903 431.837 212.903 431.326V400.191C212.903 399.681 212.492 399.27 211.982 399.27H180.846C180.336 399.27 179.925 399.681 179.925 400.191V431.326C179.925 431.837 180.336 432.248 180.846 432.248V431.349L180.824 431.326V400.191L180.846 400.169H211.982L212.004 400.191V431.326L211.982 431.349H180.846V431.798Z" fill="black"/>
<path fill-rule="evenodd" clip-rule="evenodd" d="M194.71 426.484C193.988 426.484 193.301 426.162 192.835 425.601L180.743 410.998C179.887 409.964 180.031 408.429 181.067 407.571C182.103 406.715 183.635 406.859 184.494 407.895L194.449 419.917L215.921 386.036C216.64 384.899 218.146 384.566 219.281 385.283C220.416 386.002 220.753 387.506 220.034 388.64L196.766 425.351C196.35 426.01 195.642 426.43 194.865 426.479C194.813 426.481 194.761 426.484 194.71 426.484Z" fill="#FCAA23"/>
<path fill-rule="evenodd" clip-rule="evenodd" d="M333.756 345.204V345.653H364.892C365.402 345.653 365.813 345.24 365.813 344.732V313.594C365.813 313.086 365.402 312.673 364.892 312.673H333.756C333.246 312.673 332.835 313.086 332.835 313.594V344.732C332.835 345.24 333.246 345.653 333.756 345.653V344.754L333.734 344.732V313.594L333.756 313.572H364.892L364.914 313.594V344.732L364.892 344.754H333.756V345.204Z" fill="black"/>
<path fill-rule="evenodd" clip-rule="evenodd" d="M347.62 339.887C346.899 339.887 346.211 339.565 345.746 339.006L333.653 324.403C332.797 323.367 332.941 321.832 333.975 320.976C335.011 320.118 336.543 320.262 337.402 321.298L347.359 333.32L368.832 299.439C369.551 298.304 371.056 297.969 372.189 298.688C373.326 299.407 373.663 300.911 372.942 302.045L349.676 338.756C349.258 339.415 348.553 339.833 347.775 339.882C347.723 339.887 347.672 339.887 347.62 339.887Z" fill="#FCAA23"/>
<path fill-rule="evenodd" clip-rule="evenodd" d="M434.219 287.25V193.477L562.161 193.479C562.41 193.479 562.61 193.277 562.61 193.03C562.61 192.781 562.41 192.581 562.161 192.581H433.32V287.25C433.32 287.499 433.52 287.699 433.77 287.699C434.017 287.699 434.219 287.499 434.219 287.25Z" fill="black"/>
<path fill-rule="evenodd" clip-rule="evenodd" d="M7.05296 450.893H130.317V371.775H264.007V287.699H433.77C434.017 287.699 434.219 287.497 434.219 287.25C434.219 287.003 434.017 286.8 433.77 286.8H263.108V370.876H129.418V449.994H7.05296C6.80464 449.994 6.60352 450.194 6.60352 450.444C6.60352 450.691 6.80464 450.893 7.05296 450.893Z" fill="black"/>
<path fill-rule="evenodd" clip-rule="evenodd" d="M14.5195 453.125C14.5195 456.9 11.4588 459.961 7.68343 459.961C3.90763 459.961 0.84668 456.9 0.84668 453.125C0.84668 449.347 3.90763 446.286 7.68343 446.286C11.4588 446.286 14.5195 449.347 14.5195 453.125Z" fill="#EA8B00"/>
<path fill-rule="evenodd" clip-rule="evenodd" d="M136.405 450.444C136.405 454.219 133.344 457.28 129.568 457.28C125.793 457.28 122.732 454.219 122.732 450.444C122.732 446.666 125.793 443.605 129.568 443.605C133.344 443.605 136.405 446.666 136.405 450.444Z" fill="#EA8B00"/>
<path fill-rule="evenodd" clip-rule="evenodd" d="M136.405 372.377C136.405 376.152 133.344 379.213 129.568 379.213C125.793 379.213 122.732 376.152 122.732 372.377C122.732 368.602 125.793 365.541 129.568 365.541C133.344 365.541 136.405 368.602 136.405 372.377Z" fill="#EA8B00"/>
<path fill-rule="evenodd" clip-rule="evenodd" d="M270.023 372.377C270.023 376.152 266.962 379.213 263.187 379.213C259.411 379.213 256.351 376.152 256.351 372.377C256.351 368.602 259.411 365.541 263.187 365.541C266.962 365.541 270.023 368.602 270.023 372.377Z" fill="#EA8B00"/>
<path fill-rule="evenodd" clip-rule="evenodd" d="M273.014 288.315C273.014 292.092 269.953 295.153 266.178 295.153C262.403 295.153 259.342 292.092 259.342 288.315C259.342 284.54 262.403 281.479 266.178 281.479C269.953 281.479 273.014 284.54 273.014 288.315Z" fill="#EA8B00"/>
<path fill-rule="evenodd" clip-rule="evenodd" d="M440.606 287.25C440.606 291.025 437.545 294.086 433.77 294.086C429.992 294.086 426.932 291.025 426.932 287.25C426.932 283.474 429.992 280.414 433.77 280.414C437.545 280.414 440.606 283.474 440.606 287.25Z" fill="#EA8B00"/>
<path fill-rule="evenodd" clip-rule="evenodd" d="M570.325 193.03C570.325 196.805 567.265 199.866 563.489 199.866C559.714 199.866 556.653 196.805 556.653 193.03C556.653 189.252 559.714 186.192 563.489 186.192C567.265 186.192 570.325 189.252 570.325 193.03Z" fill="#EA8B00"/>
<path fill-rule="evenodd" clip-rule="evenodd" d="M76.7277 397.593C70.5299 387.382 51.9969 392.602 52.3026 404.369C52.579 414.987 66.7905 425.43 69.5568 427.365L76.4154 424.547C76.6064 424.016 76.9457 423.023 77.33 421.699C78.5345 417.54 80.166 410.119 78.9165 403.526C78.5165 401.42 77.8221 399.398 76.7277 397.593Z" fill="white"/>
<path fill-rule="evenodd" clip-rule="evenodd" d="M76.7277 397.593L77.112 397.36C75.9187 395.393 74.2783 393.971 72.4131 393.049C70.5479 392.126 68.4579 391.697 66.35 391.697C62.8106 391.699 59.2106 392.899 56.4689 395.043C55.0981 396.115 53.9431 397.427 53.1318 398.946C52.3183 400.468 51.8486 402.196 51.8486 404.081C51.8486 404.18 51.8509 404.279 51.8531 404.38C51.925 407.133 52.8958 409.843 54.3341 412.389C56.4937 416.207 59.7117 419.67 62.6511 422.369C65.5905 425.066 68.2512 426.998 69.3006 427.733L69.5006 427.873L76.7727 424.886L76.8401 424.697C77.0311 424.16 77.3749 423.158 77.7615 421.823C78.6671 418.697 79.8132 413.746 79.8132 408.643C79.8132 406.906 79.6806 405.151 79.357 403.443C78.9503 401.295 78.2401 399.22 77.112 397.36L76.7277 397.593L76.3435 397.825C77.4042 399.575 78.0828 401.544 78.4738 403.609C78.7862 405.25 78.9143 406.951 78.9143 408.643C78.9165 413.612 77.7907 418.497 76.8985 421.574C76.5187 422.886 76.1794 423.872 75.9929 424.396L76.4154 424.547L76.2446 424.131L69.386 426.949L69.5568 427.365L69.8153 426.996C68.4467 426.039 64.2219 422.958 60.3229 418.814C58.3723 416.744 56.5071 414.407 55.1161 411.946C53.7251 409.488 52.8172 406.91 52.752 404.355C52.7498 404.263 52.7475 404.171 52.7475 404.081C52.7475 402.344 53.1767 400.769 53.9228 399.371C55.0442 397.276 56.8914 395.58 59.0937 394.409C61.296 393.238 63.8489 392.595 66.35 392.595C68.3366 392.595 70.2894 393 72.0153 393.854C73.7389 394.71 75.2401 396.009 76.3435 397.825L76.7277 397.593Z" fill="black"/>
<path fill-rule="evenodd" clip-rule="evenodd" d="M76.4145 424.547L75.7808 424.32C75.7314 424.457 75.6909 424.562 75.6662 424.634C75.6527 424.668 75.6415 424.695 75.6347 424.713L75.628 424.731L75.6258 424.735L76.255 424.98L75.9876 424.362L69.7515 427.063L70.0189 427.681L70.3942 427.122L70.3875 427.117C70.3537 427.095 70.1987 426.992 69.9425 426.812L69.556 427.365L69.8122 427.987L76.6707 425.171L76.4145 424.547L75.7808 424.32L76.4145 424.547L76.1584 423.922L68.1582 427.21L69.1695 427.917C69.4728 428.129 69.6414 428.241 69.6459 428.243L69.9515 428.446L76.7808 425.488L76.882 425.227C76.8842 425.221 76.9471 425.063 77.0505 424.774L77.5606 423.347L76.1584 423.922L76.4145 424.547Z" fill="black"/>
<path fill-rule="evenodd" clip-rule="evenodd" d="M76.6379 424.457L77.2986 426.07L77.366 426.23L69.9322 429.284L69.867 429.124L69.2041 427.508L69.5569 427.365L76.4155 424.547L76.6379 424.457Z" fill="#FCAA23"/>
<path fill-rule="evenodd" clip-rule="evenodd" d="M77.1989 431.798L74.1584 433.046C73.1359 433.466 71.9673 432.978 71.5471 431.953L71.1426 430.971L77.8865 428.201L78.291 429.185C78.7113 430.207 78.2214 431.378 77.1989 431.798Z" fill="#FCAA23"/>
<path fill-rule="evenodd" clip-rule="evenodd" d="M75.2036 424.47C75.1946 424.448 75.0822 424.144 74.5519 422.594C74.0193 421.043 73.0665 418.243 71.3721 413.218C70.9249 411.892 70.7473 410.726 70.7473 409.717C70.7473 409.254 70.7833 408.825 70.8507 408.427L71.0395 407.29L70.1316 407.998C70.0327 408.074 69.9316 408.153 69.826 408.232C67.0079 410.353 64.891 411.281 63.4258 411.562L62.7314 411.695L63.1472 412.265C63.9225 413.335 64.7877 414.787 65.6439 416.353C66.927 418.704 68.1877 421.317 69.1293 423.342C69.599 424.356 69.99 425.221 70.2619 425.832C70.3968 426.138 70.5046 426.38 70.5765 426.547C70.6484 426.713 70.6866 426.801 70.6866 426.801C70.7855 427.028 71.0485 427.133 71.2777 427.034C71.5046 426.938 71.6103 426.672 71.5114 426.446C71.5114 426.441 70.4057 423.877 68.9023 420.762C68.1495 419.203 67.2978 417.508 66.4326 415.922C65.5652 414.335 64.6888 412.861 63.8753 411.74L63.5112 412.003L63.5944 412.443C65.2573 412.122 67.4754 411.124 70.3653 408.949C70.4732 408.868 70.581 408.787 70.6822 408.708L70.408 408.353L69.963 408.279C69.8889 408.726 69.8484 409.205 69.8484 409.717C69.8484 410.832 70.0462 412.097 70.5204 413.506C72.2687 418.693 73.2283 421.511 73.7519 423.032C74.2732 424.553 74.3586 424.776 74.3631 424.789C74.4508 425.021 74.7092 425.138 74.9429 425.05C75.1744 424.962 75.2912 424.702 75.2036 424.47Z" fill="black"/>
<path fill-rule="evenodd" clip-rule="evenodd" d="M78.8332 428.205L70.2218 431.74L69.251 429.376L77.8624 425.839L78.8332 428.205Z" fill="#FCAA23"/>
<path fill-rule="evenodd" clip-rule="evenodd" d="M78.8328 428.205L78.662 427.789L70.4663 431.153L69.8371 429.621L77.617 426.425L78.4171 428.374L78.8328 428.205L78.662 427.789L78.8328 428.205L79.2485 428.032L78.1069 425.252L68.6641 429.131L69.9764 432.326L79.4193 428.448L79.2485 428.032L78.8328 428.205Z" fill="black"/>
<path fill-rule="evenodd" clip-rule="evenodd" d="M44.7874 382.427L51.4527 389.62C51.6212 389.802 51.9066 389.813 52.0887 389.645C52.2707 389.474 52.2819 389.191 52.1111 389.009L45.4459 381.815C45.2773 381.633 44.9942 381.624 44.8121 381.793C44.6301 381.962 44.6189 382.245 44.7874 382.427Z" fill="#081535"/>
<path fill-rule="evenodd" clip-rule="evenodd" d="M32.2682 402.971L45.3651 404.753C45.6122 404.787 45.837 404.614 45.8707 404.366C45.9044 404.122 45.7314 403.895 45.4864 403.861L32.3895 402.081C32.1423 402.047 31.9154 402.218 31.8817 402.465C31.8502 402.71 32.021 402.937 32.2682 402.971Z" fill="#081535"/>
<path fill-rule="evenodd" clip-rule="evenodd" d="M37.9218 416.778L46.8815 415.063C47.1265 415.016 47.286 414.78 47.2388 414.537C47.1917 414.293 46.9557 414.133 46.713 414.18L37.751 415.895C37.5083 415.942 37.3488 416.178 37.396 416.421C37.4409 416.666 37.6769 416.825 37.9218 416.778Z" fill="#081535"/>
<path fill-rule="evenodd" clip-rule="evenodd" d="M81.1613 376.236L76.4961 387.526C76.4017 387.755 76.5095 388.018 76.7388 388.112C76.968 388.207 77.2309 388.099 77.3275 387.867L81.9928 376.579C82.0872 376.35 81.9793 376.087 81.7501 375.991C81.5209 375.896 81.2579 376.006 81.1613 376.236Z" fill="#081535"/>
<path fill-rule="evenodd" clip-rule="evenodd" d="M97.5658 389.11L84.8622 398.222C84.6599 398.369 84.615 398.649 84.7588 398.849C84.9049 399.052 85.1858 399.099 85.3858 398.953L98.0894 389.84C98.2917 389.696 98.3366 389.416 98.1928 389.213C98.049 389.011 97.7681 388.966 97.5658 389.11Z" fill="#081535"/>
<path fill-rule="evenodd" clip-rule="evenodd" d="M164.687 357.04H214.487C215.348 357.04 216.047 356.341 216.047 355.48V283.775C216.047 282.913 215.348 282.216 214.487 282.216H164.687C163.824 282.216 163.127 282.913 163.127 283.775V355.48C163.127 356.341 163.824 357.04 164.687 357.04Z" fill="#222831"/>
<path fill-rule="evenodd" clip-rule="evenodd" d="M167.093 354.105H212.078C212.577 354.105 212.979 353.7 212.979 353.204V286.05C212.979 285.553 212.577 285.149 212.078 285.149H167.093C166.597 285.149 166.194 285.553 166.194 286.05V353.204C166.194 353.7 166.597 354.105 167.093 354.105Z" fill="#FCAA23"/>
<path fill-rule="evenodd" clip-rule="evenodd" d="M169.107 352.523H210.065C210.681 352.523 211.179 352.024 211.179 351.408V288.895C211.179 288.279 210.681 287.78 210.065 287.78H169.107C168.491 287.78 167.992 288.279 167.992 288.895V351.408C167.992 352.024 168.491 352.523 169.107 352.523Z" fill="white"/>
<path fill-rule="evenodd" clip-rule="evenodd" d="M189.053 280.038C189.923 280.038 190.628 279.333 190.628 278.463C190.628 277.593 189.923 276.888 189.053 276.888C188.183 276.888 187.478 277.593 187.478 278.463C187.478 279.333 188.183 280.038 189.053 280.038ZM189.053 275.62C190.603 275.62 191.862 276.876 191.862 278.427V282.027H186.246C186.246 282.027 186.246 279.169 186.246 278.427C186.246 276.876 187.502 275.62 189.053 275.62Z" fill="#222831"/>
<path fill-rule="evenodd" clip-rule="evenodd" d="M189.053 280.038V280.488C190.172 280.488 191.078 279.582 191.078 278.463C191.078 277.346 190.172 276.438 189.053 276.438C187.936 276.438 187.028 277.346 187.028 278.463C187.028 279.582 187.936 280.488 189.053 280.488V279.589C188.741 279.589 188.462 279.465 188.258 279.261C188.053 279.054 187.927 278.775 187.927 278.463C187.927 278.151 188.053 277.872 188.258 277.668C188.462 277.463 188.741 277.337 189.053 277.337C189.365 277.337 189.644 277.463 189.849 277.668C190.053 277.872 190.179 278.151 190.179 278.463C190.179 278.775 190.053 279.054 189.849 279.261C189.644 279.465 189.365 279.589 189.053 279.589V280.038ZM189.053 275.62V276.07C189.707 276.07 190.294 276.333 190.721 276.76C191.148 277.189 191.41 277.775 191.413 278.427V281.575L186.246 281.578V282.027H186.696C186.696 282.025 186.696 280.755 186.696 279.69C186.696 279.157 186.696 278.674 186.696 278.427C186.696 277.775 186.959 277.189 187.386 276.76C187.815 276.333 188.401 276.07 189.053 276.07V275.171C187.255 275.171 185.797 276.629 185.797 278.427C185.797 278.674 185.797 279.157 185.797 279.69C185.797 280.755 185.797 282.025 185.797 282.027V282.474H192.312V278.427C192.309 276.629 190.853 275.171 189.053 275.171V275.62Z" fill="black"/>
<path fill-rule="evenodd" clip-rule="evenodd" d="M172.565 283.454V286.265H206.609V283.454C206.609 282.362 205.723 281.479 204.633 281.479H174.541C173.449 281.479 172.565 282.362 172.565 283.454Z" fill="#222831"/>
<path fill-rule="evenodd" clip-rule="evenodd" d="M172.565 283.454H172.115V286.715H207.057V283.454C207.057 282.113 205.97 281.029 204.633 281.029H174.54C173.201 281.029 172.115 282.115 172.115 283.454H173.014C173.014 283.029 173.185 282.652 173.461 282.375C173.738 282.099 174.115 281.928 174.54 281.928H204.633C205.055 281.928 205.433 282.099 205.711 282.375C205.988 282.652 206.159 283.032 206.159 283.454V285.816H173.014V283.454H172.565Z" fill="#222831"/>
<path fill-rule="evenodd" clip-rule="evenodd" d="M206.609 286.265H172.565V285.562H173.015V285.816H206.159V283.454C206.159 283.032 205.989 282.652 205.712 282.375C205.46 282.124 205.126 281.962 204.75 281.933C204.633 281.766 204.501 281.614 204.362 281.479H204.633C205.723 281.479 206.609 282.362 206.609 283.454V286.265Z" fill="black"/>
<path fill-rule="evenodd" clip-rule="evenodd" d="M228.229 318.577H228.295L228.306 318.573H228.267L228.229 318.577Z" fill="#FBF4E9"/>
<path fill-rule="evenodd" clip-rule="evenodd" d="M229.261 317.965C229.148 317.949 229.031 317.956 228.917 317.985C228.663 318.048 228.416 318.221 228.209 318.506L228.213 318.511H228.229L228.222 318.513L228.393 354.395L230.236 354.386L230.063 318.504L230.054 318.5C229.831 318.185 229.551 318.005 229.261 317.965Z" fill="#FCAA23"/>
<path fill-rule="evenodd" clip-rule="evenodd" d="M228.18 318.513L228.205 318.511H228.214L228.209 318.506C227.839 318.142 227.356 317.96 226.872 317.96V317.972L226.87 317.96C226.385 317.963 225.902 318.149 225.533 318.52L225.529 318.524L225.538 318.522L225.56 318.524H225.52L225.69 354.406L227.039 354.402H227.045L228.394 354.395L228.223 318.513H228.18Z" fill="white"/>
<path fill-rule="evenodd" clip-rule="evenodd" d="M225.601 318.584L225.587 318.588H225.562H225.636L225.601 318.584Z" fill="#FAEEDD"/>
<path fill-rule="evenodd" clip-rule="evenodd" d="M226.829 309.738L226.825 309.729V309.749L225.948 312.194L226.836 312.19H226.845L227.733 312.185L226.834 309.749L226.831 309.727L226.829 309.738Z" fill="#0B065A"/>
<path fill-rule="evenodd" clip-rule="evenodd" d="M225.69 354.406L225.519 318.524H225.513H225.528L225.533 318.52C225.304 318.203 225.014 318.026 224.724 317.981L224.708 317.978L224.652 317.974L224.603 317.972C224.252 317.965 223.913 318.151 223.688 318.531L223.677 318.533L223.85 354.415L225.69 354.406Z" fill="#FCAA23"/>
<path fill-rule="evenodd" clip-rule="evenodd" d="M226.845 312.19V312.077H226.836L225.948 312.082C225.901 312.082 225.858 312.111 225.843 312.156L223.571 318.495C223.557 318.536 223.566 318.578 223.593 318.61C223.622 318.639 223.665 318.653 223.705 318.644L223.714 318.639C223.744 318.632 223.771 318.614 223.784 318.587C223.989 318.244 224.281 318.084 224.584 318.084H224.595L224.645 318.086L224.652 317.974L224.643 318.086L224.694 318.091L224.701 318.093H224.706C224.964 318.131 225.227 318.288 225.443 318.585C225.461 318.612 225.492 318.628 225.523 318.63C225.557 318.635 225.589 318.621 225.613 318.599C225.959 318.25 226.413 318.075 226.87 318.073V317.96L226.759 317.987L226.762 317.999C226.775 318.053 226.829 318.091 226.885 318.084C226.942 318.077 226.984 318.03 226.984 317.974V317.963L226.872 317.96L226.879 318.073L226.874 318.008L226.876 318.073H226.879L226.874 318.008L226.876 318.073C227.33 318.073 227.782 318.244 228.13 318.585C228.153 318.61 228.184 318.621 228.218 318.619C228.249 318.614 228.281 318.599 228.299 318.572C228.497 318.302 228.721 318.149 228.946 318.095L228.953 318.093C229.013 318.073 229.07 318.064 229.126 318.064C229.162 318.064 229.2 318.066 229.238 318.075L229.247 318.077C229.499 318.111 229.753 318.268 229.962 318.565C229.978 318.587 230 318.603 230.027 318.61L230.038 318.612C230.079 318.623 230.121 318.61 230.148 318.578C230.175 318.547 230.184 318.504 230.169 318.464L227.838 312.147C227.82 312.102 227.777 312.073 227.73 312.073L226.843 312.077L226.845 312.19V312.302L227.654 312.297L229.96 318.542L230.063 318.504L230.09 318.394L230.079 318.392L230.054 318.5L230.144 318.437C229.91 318.1 229.602 317.897 229.276 317.855L229.261 317.965L229.285 317.855C229.231 317.844 229.178 317.839 229.126 317.839C229.045 317.839 228.962 317.853 228.883 317.879L228.917 317.985L228.89 317.877C228.607 317.947 228.337 318.138 228.117 318.439L228.209 318.506L228.288 318.426C227.897 318.041 227.386 317.848 226.876 317.848H226.865C226.804 317.853 226.759 317.9 226.759 317.96V317.969L226.872 317.972L226.982 317.945L226.977 317.933C226.966 317.884 226.921 317.848 226.87 317.848C226.355 317.85 225.843 318.048 225.454 318.439L225.532 318.52L225.625 318.453C225.382 318.115 225.065 317.918 224.739 317.871L224.723 317.981L224.744 317.871L224.728 317.868L224.717 317.866L224.661 317.862H224.658L224.609 317.859H224.584C224.198 317.857 223.827 318.073 223.591 318.475L223.688 318.531L223.661 318.421L223.649 318.426L223.676 318.533L223.784 318.572L226.029 312.306L226.838 312.302H226.845V312.19Z" fill="black"/>
<path fill-rule="evenodd" clip-rule="evenodd" d="M230.605 354.163L228.373 354.175L225.701 354.188L223.47 354.197L223.485 357.727L225.697 357.716L228.409 357.703L230.623 357.694L230.605 354.163Z" fill="#222831"/>
<path fill-rule="evenodd" clip-rule="evenodd" d="M206.557 306.378H172.197C171.932 306.378 171.716 306.162 171.716 305.897C171.716 305.632 171.932 305.414 172.197 305.414H206.557C206.822 305.414 207.038 305.632 207.038 305.897C207.038 306.162 206.822 306.378 206.557 306.378Z" fill="black"/>
<path fill-rule="evenodd" clip-rule="evenodd" d="M206.557 310.21H172.197C171.932 310.21 171.716 309.994 171.716 309.727C171.716 309.461 171.932 309.246 172.197 309.246H206.557C206.822 309.246 207.038 309.461 207.038 309.727C207.038 309.994 206.822 310.21 206.557 310.21Z" fill="black"/>
<path fill-rule="evenodd" clip-rule="evenodd" d="M206.557 314.041H172.197C171.932 314.041 171.716 313.823 171.716 313.558C171.716 313.293 171.932 313.075 172.197 313.075H206.557C206.822 313.075 207.038 313.293 207.038 313.558C207.038 313.823 206.822 314.041 206.557 314.041Z" fill="black"/>
<path fill-rule="evenodd" clip-rule="evenodd" d="M206.557 317.873H172.197C171.932 317.873 171.716 317.655 171.716 317.39C171.716 317.124 171.932 316.906 172.197 316.906H206.557C206.822 316.906 207.038 317.124 207.038 317.39C207.038 317.655 206.822 317.873 206.557 317.873Z" fill="black"/>
<path fill-rule="evenodd" clip-rule="evenodd" d="M357.576 258.559C355.749 255.903 355.582 252.321 355.582 252.321H343.414C343.414 252.321 343.247 255.903 341.42 258.559C339.593 261.218 335.775 262.879 335.775 262.879H363.221C363.221 262.879 359.403 261.218 357.576 258.559Z" fill="#5856D6"/>
<path fill-rule="evenodd" clip-rule="evenodd" d="M357.576 258.559L357.946 258.305C357.081 257.051 356.593 255.539 356.333 254.348C356.202 253.75 356.126 253.233 356.083 252.869C356.063 252.687 356.05 252.541 356.041 252.445C356.038 252.395 356.034 252.357 356.034 252.332L356.032 252.305V252.299L356.011 251.872H342.984L342.964 252.299V252.305C342.96 252.395 342.906 253.285 342.638 254.46C342.371 255.633 341.888 257.09 341.052 258.305C340.198 259.553 338.829 260.609 337.672 261.335C337.096 261.701 336.573 261.984 336.195 262.177C336.007 262.272 335.856 262.346 335.753 262.395C335.701 262.418 335.661 262.438 335.634 262.449L335.604 262.463L335.595 262.465L333.613 263.328H365.382L363.4 262.465L363.391 262.463C363.295 262.418 362.346 261.993 361.214 261.267C360.083 260.541 358.773 259.512 357.946 258.305L357.576 258.559L357.205 258.815C358.178 260.227 359.632 261.328 360.843 262.096C362.054 262.861 363.027 263.283 363.043 263.29L363.221 262.878V262.429H335.775V262.878L335.955 263.29C335.968 263.283 336.941 262.861 338.153 262.096C339.364 261.328 340.818 260.227 341.791 258.815C342.753 257.413 343.263 255.802 343.542 254.541C343.818 253.276 343.863 252.359 343.863 252.341L343.413 252.321V252.77H355.582V252.321L355.133 252.341C355.135 252.359 355.178 253.276 355.454 254.541C355.733 255.802 356.243 257.413 357.205 258.815L357.576 258.559Z" fill="black"/>
<path fill-rule="evenodd" clip-rule="evenodd" d="M409.542 250.375C409.542 252.577 407.758 254.362 405.556 254.362H293.093C290.891 254.362 289.106 252.577 289.106 250.375V176.298C289.106 174.097 290.891 172.313 293.093 172.313H405.556C407.758 172.313 409.542 174.097 409.542 176.298V250.375Z" fill="#5856D6"/>
<path fill-rule="evenodd" clip-rule="evenodd" d="M409.543 250.375H409.093C409.093 251.352 408.698 252.236 408.057 252.876C407.414 253.517 406.534 253.912 405.556 253.912H293.093C292.116 253.912 291.235 253.517 290.592 252.876C289.952 252.236 289.558 251.352 289.556 250.375V176.298C289.558 175.32 289.952 174.439 290.592 173.798C291.235 173.157 292.116 172.762 293.093 172.762H405.556C406.534 172.762 407.414 173.157 408.057 173.798C408.698 174.439 409.093 175.32 409.093 176.298V250.375H409.992V176.298C409.99 173.849 408.005 171.863 405.556 171.863H293.093C290.644 171.863 288.659 173.849 288.657 176.298V250.375C288.659 252.824 290.644 254.811 293.093 254.811H405.556C408.005 254.811 409.99 252.824 409.992 250.375H409.543Z" fill="black"/>
<path fill-rule="evenodd" clip-rule="evenodd" d="M289.106 242.979V250.375C289.106 252.577 290.891 254.362 293.093 254.362H405.556C407.758 254.362 409.542 252.577 409.542 250.375V242.979H289.106Z" fill="white"/>
<path fill-rule="evenodd" clip-rule="evenodd" d="M289.107 242.979H288.657V250.375C288.659 252.824 290.644 254.811 293.093 254.811H405.556C408.005 254.811 409.99 252.824 409.992 250.375V242.53H288.657V242.979H289.107V243.429H409.093V250.375C409.093 251.352 408.698 252.236 408.057 252.876C407.414 253.517 406.534 253.912 405.556 253.912H293.093C292.116 253.912 291.235 253.517 290.592 252.876C289.952 252.236 289.558 251.352 289.556 250.375V242.979H289.107V243.429V242.979Z" fill="black"/>
<path fill-rule="evenodd" clip-rule="evenodd" d="M364.245 264.231H334.946C334.838 264.231 334.75 264.144 334.75 264.036V261.344C334.75 261.236 334.838 261.148 334.946 261.148H364.245C364.353 261.148 364.44 261.236 364.44 261.344V264.036C364.44 264.144 364.353 264.231 364.245 264.231Z" fill="#5856D6"/>
<path fill-rule="evenodd" clip-rule="evenodd" d="M364.245 264.231V263.782H334.946V264.036H335.2C335.2 263.896 335.085 263.782 334.946 263.782V264.036H335.2V261.344H334.946V261.598C335.085 261.598 335.2 261.483 335.2 261.344H334.946V261.598H364.245V261.344H363.991C363.991 261.483 364.104 261.598 364.245 261.598V261.344H363.991V264.036H364.245V263.782C364.104 263.782 363.991 263.896 363.991 264.036H364.245V263.782V264.681C364.6 264.681 364.89 264.393 364.89 264.036V261.344C364.89 260.986 364.6 260.699 364.245 260.699H334.946C334.588 260.699 334.301 260.986 334.301 261.344V264.036C334.301 264.393 334.588 264.681 334.946 264.681H364.245V264.231Z" fill="black"/>
<path fill-rule="evenodd" clip-rule="evenodd" d="M404.037 238.79H294.24C293.817 238.79 293.476 238.449 293.476 238.026V177.084C293.476 176.662 293.817 176.319 294.24 176.319H404.037C404.46 176.319 404.801 176.662 404.801 177.084V238.026C404.801 238.449 404.46 238.79 404.037 238.79Z" fill="white"/>
<path fill-rule="evenodd" clip-rule="evenodd" d="M404.037 238.79V238.341H294.24C294.067 238.341 293.925 238.199 293.925 238.026V177.084C293.925 176.91 294.067 176.768 294.24 176.768H404.037C404.21 176.768 404.352 176.91 404.352 177.084V238.026C404.352 238.199 404.21 238.341 404.037 238.341V239.24C404.707 239.24 405.251 238.696 405.251 238.026V177.084C405.251 176.413 404.707 175.869 404.037 175.869H294.24C293.57 175.869 293.026 176.413 293.026 177.084V238.026C293.026 238.696 293.57 239.24 294.24 239.24H404.037V238.79Z" fill="black"/>
<path fill-rule="evenodd" clip-rule="evenodd" d="M401.54 182.621C401.54 181.657 400.758 180.875 399.794 180.875H299.471C298.507 180.875 297.725 181.657 297.725 182.621V187.527H401.54V182.621Z" fill="#FCAA23"/>
<path fill-rule="evenodd" clip-rule="evenodd" d="M297.725 187.527V232.489C297.725 233.453 298.507 234.235 299.471 234.235H399.794C400.758 234.235 401.54 233.453 401.54 232.489V187.527H297.725Z" fill="white"/>
<path fill-rule="evenodd" clip-rule="evenodd" d="M349.719 251.487H349.092C347.499 251.487 346.207 250.195 346.207 248.602V247.975C346.207 246.379 347.499 245.087 349.092 245.087H349.719C351.313 245.087 352.605 246.379 352.605 247.975V248.602C352.605 250.195 351.313 251.487 349.719 251.487Z" fill="#222831"/>
<path fill-rule="evenodd" clip-rule="evenodd" d="M339.187 201.605H381.091V200.841H339.187V201.605Z" fill="#C4D6EB"/>
<path fill-rule="evenodd" clip-rule="evenodd" d="M318.175 194.774H381.091V193.03H318.175V194.774Z" fill="#FCAA23"/>
<path fill-rule="evenodd" clip-rule="evenodd" d="M339.061 203.974H381.091V203.212H339.061V203.974Z" fill="#C4D6EB"/>
<path fill-rule="evenodd" clip-rule="evenodd" d="M339.061 199.235H381.091V198.473H339.061V199.235Z" fill="#C4D6EB"/>
<path fill-rule="evenodd" clip-rule="evenodd" d="M339.061 206.343H381.091V205.581H339.061V206.343Z" fill="#C4D6EB"/>
<path fill-rule="evenodd" clip-rule="evenodd" d="M339.061 208.711H381.091V207.949H339.061V208.711Z" fill="#C4D6EB"/>
<path fill-rule="evenodd" clip-rule="evenodd" d="M339.061 211.082H381.091V210.32H339.061V211.082Z" fill="#C4D6EB"/>
<path fill-rule="evenodd" clip-rule="evenodd" d="M339.061 213.451H381.091V212.689H339.061V213.451Z" fill="#C4D6EB"/>
<path fill-rule="evenodd" clip-rule="evenodd" d="M339.061 215.819H381.091V215.057H339.061V215.819Z" fill="#C4D6EB"/>
<path fill-rule="evenodd" clip-rule="evenodd" d="M339.061 218.19H361.78V217.428H339.061V218.19Z" fill="#C4D6EB"/>
<path fill-rule="evenodd" clip-rule="evenodd" d="M336.528 230.534H318.921C318.528 230.534 318.211 230.215 318.211 229.824V199.156C318.211 198.765 318.528 198.446 318.921 198.446H336.528C336.921 198.446 337.24 198.765 337.24 199.156V229.824C337.24 230.215 336.921 230.534 336.528 230.534Z" fill="#FCAA23"/>
<path fill-rule="evenodd" clip-rule="evenodd" d="M548.491 129.955C548.491 156.717 526.796 178.412 500.034 178.412C473.274 178.412 451.579 156.717 451.579 129.955C451.579 103.194 473.274 81.499 500.034 81.499C526.796 81.499 548.491 103.194 548.491 129.955Z" fill="white"/>
<path fill-rule="evenodd" clip-rule="evenodd" d="M500.034 168.596C478.694 168.596 461.393 151.296 461.393 129.955C461.393 108.614 478.694 91.3143 500.034 91.3143C521.376 91.3143 538.675 108.614 538.675 129.955C538.675 151.296 521.376 168.596 500.034 168.596ZM500.034 81.499C473.274 81.499 451.579 103.194 451.579 129.955C451.579 156.717 473.274 178.412 500.034 178.412C526.796 178.412 548.491 156.717 548.491 129.955C548.491 103.194 526.796 81.499 500.034 81.499Z" fill="#5856D6"/>
<path fill-rule="evenodd" clip-rule="evenodd" d="M500.034 168.596V168.147C489.488 168.146 479.942 163.873 473.029 156.961C466.117 150.048 461.845 140.503 461.842 129.955C461.845 119.408 466.117 109.862 473.029 102.95C479.942 96.0377 489.488 91.7639 500.034 91.7637C510.583 91.7639 520.129 96.0377 527.041 102.95C533.952 109.862 538.226 119.407 538.226 129.955C538.226 140.503 533.952 150.048 527.041 156.961C520.129 163.873 510.583 168.146 500.034 168.147V169.046C521.623 169.045 539.125 151.544 539.125 129.955C539.125 108.366 521.623 90.865 500.034 90.8648C478.445 90.865 460.946 108.366 460.943 129.955C460.946 151.544 478.445 169.045 500.034 169.046V168.596ZM500.034 81.499V81.0496C473.025 81.0498 451.13 102.945 451.13 129.955C451.13 156.965 473.025 178.861 500.034 178.861C527.046 178.861 548.941 156.965 548.941 129.955C548.941 102.945 527.046 81.0498 500.034 81.0496V81.9485C513.293 81.9487 525.293 87.3211 533.981 96.0094C542.669 104.698 548.042 116.697 548.042 129.955C548.042 143.213 542.669 155.212 533.981 163.901C525.293 172.589 513.293 177.962 500.034 177.962C486.778 177.962 474.777 172.589 466.09 163.901C457.402 155.212 452.029 143.213 452.029 129.955C452.029 116.697 457.402 104.698 466.09 96.0094C474.777 87.3211 486.778 81.9487 500.034 81.9485V81.499Z" fill="black"/>
<path fill-rule="evenodd" clip-rule="evenodd" d="M500.034 153.467C487.05 153.467 476.524 142.941 476.524 129.955C476.524 116.97 487.05 106.443 500.034 106.443C513.021 106.443 523.547 116.97 523.547 129.955C523.547 142.941 513.021 153.467 500.034 153.467ZM500.034 100.471C483.751 100.471 470.551 113.672 470.551 129.955C470.551 146.239 483.751 159.44 500.034 159.44C516.32 159.44 529.52 146.239 529.52 129.955C529.52 113.672 516.32 100.471 500.034 100.471Z" fill="#5856D6"/>
<path fill-rule="evenodd" clip-rule="evenodd" d="M500.035 153.467V153.018C493.666 153.018 487.902 150.437 483.729 146.263C479.553 142.088 476.974 136.325 476.974 129.955C476.974 123.585 479.553 117.822 483.729 113.647C487.902 109.473 493.666 106.893 500.035 106.893C506.406 106.893 512.168 109.473 516.343 113.647C520.518 117.822 523.098 123.585 523.098 129.955C523.098 136.325 520.518 142.088 516.343 146.263C512.168 150.437 506.406 153.018 500.035 153.018V153.917C513.269 153.917 523.997 143.189 523.997 129.955C523.997 116.721 513.269 105.994 500.035 105.994C486.801 105.994 476.075 116.721 476.075 129.955C476.075 143.189 486.801 153.917 500.035 153.917V153.467ZM500.035 100.471V100.021C483.504 100.022 470.102 113.423 470.102 129.955C470.102 146.487 483.504 159.889 500.035 159.889C516.568 159.889 529.97 146.487 529.97 129.955C529.97 113.423 516.568 100.022 500.035 100.021V100.92C508.055 100.92 515.311 104.17 520.565 109.424C525.822 114.68 529.071 121.936 529.071 129.955C529.071 137.974 525.822 145.23 520.565 150.486C515.311 155.741 508.055 158.99 500.035 158.99C492.017 158.99 484.76 155.741 479.504 150.486C474.25 145.23 471 137.974 471 129.955C471 121.936 474.25 114.68 479.504 109.424C484.76 104.17 492.017 100.92 500.035 100.92V100.471Z" fill="black"/>
<path fill-rule="evenodd" clip-rule="evenodd" d="M490.946 129.955C490.946 124.936 495.016 120.867 500.034 120.867C505.054 120.867 509.124 124.936 509.124 129.955C509.124 134.974 505.054 139.043 500.034 139.043C495.016 139.043 490.946 134.974 490.946 129.955Z" fill="#5856D6"/>
<path fill-rule="evenodd" clip-rule="evenodd" d="M490.947 129.955H491.396C491.396 127.568 492.362 125.411 493.926 123.847C495.49 122.283 497.648 121.317 500.034 121.316C502.423 121.317 504.578 122.283 506.145 123.847C507.709 125.411 508.673 127.568 508.675 129.955C508.673 132.342 507.709 134.499 506.145 136.064C504.578 137.628 502.423 138.594 500.034 138.594C497.648 138.594 495.49 137.628 493.926 136.064C492.362 134.499 491.396 132.342 491.396 129.955H490.497C490.497 135.223 494.767 139.492 500.034 139.493C505.302 139.492 509.572 135.223 509.574 129.955C509.572 124.688 505.302 120.418 500.034 120.418C494.767 120.418 490.497 124.688 490.497 129.955H490.947Z" fill="black"/>
<path fill-rule="evenodd" clip-rule="evenodd" d="M512.848 123.961L500.927 128.601L512.642 122.891L512.848 123.961Z" fill="#FCAA23"/>
<path fill-rule="evenodd" clip-rule="evenodd" d="M512.848 123.961L512.686 123.542L510.926 124.227L512.311 123.552L512.407 124.047L512.848 123.961L512.686 123.542L512.848 123.961L513.291 123.875L512.969 122.231L500.729 128.197L501.088 129.02L513.36 124.244L513.291 123.875L512.848 123.961Z" fill="black"/>
<path fill-rule="evenodd" clip-rule="evenodd" d="M511.221 123.584C511.234 123.457 511.288 123.372 511.364 123.336C511.364 123.336 515.07 119.337 523.436 115.686C535.392 110.469 537.234 110.236 537.241 110.234C537.556 110.102 537.324 110.457 537.745 110.769C538.592 111.396 539.183 112.749 539.064 113.789C539.005 114.304 539.482 114.363 539.169 114.501C539.165 114.504 537.727 115.623 525.76 120.838C517.364 124.496 511.834 124.403 511.834 124.403C511.755 124.435 511.654 124.416 511.551 124.339C511.337 124.182 511.191 123.844 511.221 123.584Z" fill="#FCAA23"/>
<path fill-rule="evenodd" clip-rule="evenodd" d="M511.221 123.584L511.668 123.635V123.629L511.621 123.619L511.665 123.638L511.668 123.629L511.621 123.619L511.665 123.638L511.468 123.558L511.555 123.744C511.623 123.713 511.659 123.656 511.665 123.638L511.468 123.558L511.555 123.744L511.634 123.706L511.695 123.642L511.697 123.64C511.776 123.555 515.445 119.664 523.616 116.098C529.587 113.492 533.03 112.133 534.974 111.427C535.945 111.074 536.54 110.885 536.886 110.785C537.059 110.735 537.172 110.708 537.235 110.693C537.266 110.686 537.286 110.682 537.297 110.68L537.309 110.678L537.311 110.678L537.32 110.676L537.333 110.674L537.351 110.67L537.36 110.667L537.241 110.234L537.297 110.68L537.243 110.259L537.297 110.68V110.68L537.243 110.259L537.297 110.68L537.358 110.672L537.414 110.648L537.421 110.645L537.381 110.53L537.405 110.649L537.421 110.645L537.381 110.53L537.405 110.649L537.349 110.37V110.655C537.376 110.655 537.394 110.652 537.405 110.649L537.349 110.37V110.655V110.297L537.248 110.64C537.286 110.652 537.322 110.655 537.349 110.655V110.297L537.248 110.64L537.354 110.279L537.064 110.521C537.1 110.565 537.174 110.621 537.248 110.64L537.354 110.279L537.064 110.521L537.297 110.326L537.017 110.446C537.021 110.456 537.032 110.482 537.064 110.521L537.297 110.326L537.017 110.446L537.109 110.407L537.014 110.44L537.017 110.446L537.109 110.407L537.014 110.44C537.017 110.442 537.026 110.476 537.041 110.522C537.064 110.593 537.102 110.699 537.174 110.809C537.243 110.919 537.345 111.032 537.477 111.13C537.79 111.358 538.088 111.742 538.297 112.179C538.509 112.615 538.63 113.102 538.63 113.514C538.63 113.592 538.626 113.667 538.617 113.739L538.619 113.738C538.612 113.784 538.61 113.83 538.61 113.876C538.61 114.007 538.632 114.129 538.67 114.231C538.724 114.385 538.805 114.494 538.848 114.551L538.873 114.583L538.875 114.588V114.588L539.077 114.454L538.855 114.548C538.868 114.576 538.875 114.586 538.875 114.588L539.077 114.454L538.855 114.548L539.196 114.404H538.828C538.828 114.472 538.844 114.521 538.855 114.548L539.196 114.404H538.828H539.221L538.866 114.231C538.841 114.281 538.826 114.347 538.828 114.404H539.221L538.866 114.231L539.178 114.383L538.972 114.102C538.951 114.117 538.904 114.154 538.866 114.231L539.178 114.383L538.972 114.102L539.079 114.249L538.992 114.089L538.972 114.102L539.079 114.249L538.992 114.089L538.996 114.098L538.992 114.089V114.089L538.996 114.098L538.992 114.089L538.985 114.091L538.983 114.093C538.947 114.11 538.94 114.116 538.931 114.121L538.911 114.133L538.902 114.14C538.9 114.142 538.877 114.158 538.81 114.201C538.576 114.351 537.826 114.794 535.857 115.754C533.888 116.715 530.7 118.195 525.58 120.426C517.641 123.885 512.304 123.954 511.87 123.954C511.845 123.954 511.839 123.954 511.834 123.954H511.746L511.665 123.986L511.755 124.21V123.969C511.731 123.968 511.699 123.973 511.665 123.986L511.755 124.21V123.969V124.137L511.816 123.978C511.807 123.974 511.785 123.969 511.755 123.969V124.137L511.816 123.978L511.796 124.029L511.823 123.981L511.816 123.978L511.796 124.029L511.823 123.981L511.818 123.978C511.796 123.964 511.746 123.909 511.715 123.84C511.681 123.772 511.665 123.692 511.665 123.653V123.639L511.668 123.635L511.221 123.584L510.773 123.529C510.769 123.573 510.767 123.614 510.767 123.653C510.769 123.861 510.821 124.053 510.906 124.231C510.994 124.407 511.11 124.571 511.283 124.7C511.412 124.795 511.569 124.866 511.755 124.867C511.836 124.867 511.922 124.853 512 124.82L511.834 124.403V124.853V124.653L511.832 124.853H511.834V124.653L511.832 124.853C511.836 124.853 511.848 124.853 511.87 124.853C512.403 124.853 517.868 124.767 525.938 121.25C531.927 118.64 535.284 117.054 537.151 116.117C538.086 115.648 538.648 115.341 538.981 115.148C539.147 115.052 539.257 114.984 539.329 114.938C539.363 114.914 539.39 114.897 539.408 114.884L539.428 114.869L539.432 114.866L539.228 114.585L539.43 114.868L539.432 114.866L539.228 114.585L539.43 114.868L539.176 114.511L539.421 114.874L539.43 114.868L539.176 114.511L539.421 114.874L539.172 114.505L539.408 114.883L539.421 114.874L539.172 114.505L539.408 114.883L539.169 114.501L539.401 114.886L539.408 114.883L539.169 114.501L539.401 114.886L539.446 114.856V114.856L539.169 114.501L539.354 114.912C539.417 114.882 539.482 114.851 539.56 114.779C539.599 114.742 539.641 114.692 539.675 114.625C539.706 114.559 539.727 114.477 539.727 114.404C539.724 114.302 539.697 114.226 539.673 114.176C539.63 114.088 539.596 114.053 539.576 114.023C539.542 113.98 539.529 113.959 539.522 113.942C539.513 113.925 539.509 113.914 539.509 113.876L539.511 113.841V113.84C539.522 113.733 539.529 113.624 539.529 113.514C539.527 112.933 539.369 112.334 539.106 111.788C538.844 111.244 538.475 110.752 538.012 110.407C537.963 110.371 537.945 110.346 537.931 110.325C537.909 110.292 537.902 110.267 537.875 110.178C537.868 110.155 537.859 110.127 537.844 110.091C537.819 110.039 537.781 109.958 537.686 109.877C537.641 109.838 537.581 109.804 537.52 109.784C537.459 109.763 537.399 109.756 537.349 109.756C537.221 109.758 537.142 109.79 537.066 109.82L537.241 110.234L537.129 109.798C537.118 109.802 537.109 109.802 537.066 109.82L537.241 110.234L537.129 109.798L537.239 110.23L537.156 109.792L537.129 109.798L537.239 110.23L537.156 109.792L537.16 109.809L537.156 109.792L537.16 109.809L537.156 109.792C537.035 109.814 536.446 109.928 534.441 110.664C532.437 111.4 529.019 112.76 523.257 115.274C514.823 118.954 511.07 122.994 511.036 123.031L511.364 123.336L511.176 122.929C511.05 122.987 510.949 123.087 510.883 123.195C510.818 123.303 510.787 123.418 510.773 123.533V123.529L511.221 123.584Z" fill="black"/>
<path fill-rule="evenodd" clip-rule="evenodd" d="M537.037 111.216C537.093 110.73 537.3 110.405 537.59 110.27L607.126 80.0911C607.43 79.9648 607.207 80.3039 607.609 80.6013C608.418 81.2001 608.982 82.4914 608.868 83.4854C608.812 83.9768 609.266 84.0326 608.969 84.1651L539.379 114.346C539.078 114.467 538.696 114.394 538.298 114.1C537.487 113.501 536.923 112.21 537.037 111.216Z" fill="#0B065A"/>
<path fill-rule="evenodd" clip-rule="evenodd" d="M537.037 111.216L537.485 111.267C537.505 111.075 537.557 110.934 537.61 110.842C537.667 110.75 537.723 110.704 537.779 110.678L537.59 110.27L537.77 110.682L607.306 80.5033L607.126 80.0911L607.302 80.5055L607.308 80.5031L607.23 80.2828V80.5134C607.288 80.5125 607.308 80.5024 607.308 80.5031L607.23 80.2828V80.5134V80.1516L607.129 80.4986C607.167 80.51 607.203 80.5134 607.23 80.5134V80.1516L607.129 80.4986L607.234 80.1341L606.944 80.3783C606.978 80.4231 607.054 80.4788 607.129 80.4986L607.234 80.1341L606.944 80.3783L607.183 80.1792L606.895 80.3015C606.899 80.312 606.911 80.3388 606.944 80.3783L607.183 80.1792L606.895 80.3015L607.001 80.2563L606.893 80.295L606.895 80.3015L607.001 80.2563L606.893 80.295C606.893 80.2961 606.904 80.3273 606.917 80.3729C606.94 80.4415 606.978 80.5437 607.045 80.6507C607.113 80.7581 607.214 80.868 607.342 80.9626C607.634 81.1784 607.92 81.5424 608.12 81.957C608.32 82.3707 608.434 82.8328 608.434 83.2229C608.434 83.2961 608.43 83.3672 608.423 83.4355V83.4341C608.416 83.4797 608.414 83.5245 608.414 83.5683C608.414 83.6955 608.437 83.8141 608.472 83.9139C608.526 84.0638 608.605 84.1696 608.645 84.2247L608.668 84.2546L608.672 84.2591L608.881 84.1198L608.65 84.2175C608.663 84.2458 608.67 84.2566 608.672 84.2591L608.881 84.1198L608.65 84.2175L608.996 84.0719H608.621C608.621 84.1402 608.639 84.1896 608.65 84.2175L608.996 84.0719H608.621H609.019L608.661 83.8977C608.637 83.9483 608.621 84.015 608.621 84.0719H609.019L608.661 83.8977L608.978 84.0519L608.769 83.7672C608.747 83.7831 608.702 83.82 608.661 83.8977L608.978 84.0519L608.769 83.7672L608.881 83.9222L608.789 83.7537L608.769 83.7672L608.881 83.9222L608.789 83.7537L608.803 83.7775L608.789 83.753V83.7537L608.803 83.7775L608.789 83.753L608.785 83.755L608.969 84.1651L608.792 83.7528L539.199 113.933L539.379 114.346L539.211 113.929C539.175 113.943 539.134 113.952 539.082 113.952C538.966 113.953 538.784 113.901 538.563 113.738C538.271 113.523 537.986 113.158 537.788 112.744C537.586 112.33 537.471 111.868 537.471 111.478C537.471 111.404 537.476 111.334 537.485 111.268V111.267L537.037 111.216L536.59 111.164C536.579 111.268 536.572 111.373 536.572 111.478C536.575 112.036 536.725 112.611 536.977 113.135C537.231 113.657 537.584 114.129 538.031 114.461C538.361 114.707 538.718 114.85 539.082 114.851C539.24 114.851 539.399 114.822 539.545 114.763L539.55 114.761L609.156 84.5741L609.153 84.575C609.214 84.5463 609.279 84.5164 609.356 84.4447C609.394 84.4085 609.437 84.3589 609.47 84.2923C609.502 84.2265 609.522 84.1445 609.52 84.0719C609.52 83.9703 609.493 83.895 609.468 83.8454C609.425 83.7586 609.394 83.7249 609.374 83.6957C609.342 83.6548 609.331 83.6361 609.324 83.6222C609.317 83.6078 609.315 83.6013 609.313 83.5683L609.315 83.5366V83.5355C609.326 83.4325 609.333 83.3281 609.333 83.2229C609.331 82.6644 609.18 82.0894 608.929 81.5662C608.675 81.044 608.322 80.5716 607.877 80.2401C607.832 80.2069 607.816 80.1851 607.803 80.1671C607.785 80.1383 607.778 80.1174 607.753 80.0314C607.744 80.0093 607.738 79.9821 607.722 79.9466C607.699 79.8956 607.661 79.8147 607.567 79.7347C607.52 79.6959 607.461 79.6621 607.401 79.6421C607.34 79.6217 607.281 79.6145 607.23 79.6145C607.104 79.6167 607.027 79.6478 606.953 79.6768L537.408 109.859L537.401 109.862C537.168 109.971 536.975 110.156 536.84 110.381C536.705 110.606 536.624 110.871 536.59 111.165V111.164L537.037 111.216Z" fill="black"/>
<path fill-rule="evenodd" clip-rule="evenodd" d="M606.614 81.0287C606.728 80.0347 607.477 79.7145 608.286 80.3134C609.095 80.9123 609.659 82.2033 609.544 83.1972C609.432 84.1914 608.684 84.5117 607.875 83.9128C607.066 83.3139 606.502 82.0226 606.614 81.0287Z" fill="#0B065A"/>
<path fill-rule="evenodd" clip-rule="evenodd" d="M606.613 81.0287L607.061 81.0795C607.09 80.8201 607.171 80.6577 607.247 80.5745C607.285 80.5318 607.321 80.5062 607.362 80.4884C607.4 80.4711 607.443 80.461 607.501 80.4608C607.616 80.4599 607.798 80.5111 608.018 80.6745C608.312 80.8902 608.595 81.2545 608.795 81.6691C608.995 82.0826 609.11 82.5449 609.11 82.9348C609.11 83.008 609.106 83.0788 609.099 83.1469C609.07 83.4058 608.989 83.568 608.912 83.6514C608.874 83.6939 608.836 83.7195 608.798 83.7373C608.759 83.7546 608.714 83.7647 608.658 83.7649C608.544 83.7658 608.362 83.7143 608.141 83.5514C607.847 83.3357 607.564 82.9716 607.364 82.557C607.164 82.1433 607.047 81.681 607.049 81.2911C607.049 81.2174 607.054 81.1469 607.061 81.0804V81.0795L606.613 81.0287L606.168 80.977C606.155 81.0813 606.15 81.1862 606.15 81.2911C606.15 81.8496 606.303 82.4244 606.555 82.9478C606.809 83.4701 607.162 83.9424 607.607 84.2741C607.939 84.5195 608.297 84.6627 608.658 84.6638C608.834 84.664 609.007 84.629 609.164 84.5577C609.402 84.4516 609.6 84.2665 609.737 84.0397C609.874 83.8125 609.957 83.5453 609.991 83.2483C610.002 83.1444 610.009 83.0399 610.009 82.9348C610.007 82.3763 609.856 81.8015 609.604 81.2781C609.35 80.7561 608.998 80.2837 608.553 79.952C608.22 79.7062 607.863 79.563 607.501 79.5619C607.326 79.5617 607.153 79.597 606.993 79.668C606.755 79.774 606.557 79.9594 606.422 80.1862C606.283 80.4134 606.202 80.6808 606.168 80.9779V80.977L606.613 81.0287Z" fill="black"/>
<path fill-rule="evenodd" clip-rule="evenodd" d="M606.517 84.5263L577.42 97.1433L598.53 101.318C606.436 102.881 612.439 94.3107 608.265 87.4151L606.517 84.5263Z" fill="#FCAA23"/>
<path fill-rule="evenodd" clip-rule="evenodd" d="M606.517 84.5263L606.337 84.1139L575.919 97.3047L598.443 101.758C599.11 101.891 599.769 101.954 600.409 101.954C603.151 101.954 605.576 100.794 607.304 98.9998C609.034 97.2054 610.079 94.773 610.081 92.2062C610.081 90.5347 609.634 88.8079 608.65 87.1823L606.699 83.9577L606.337 84.1139L606.517 84.5263L606.133 84.7591L607.881 87.6477C608.78 89.1358 609.18 90.694 609.182 92.2062C609.182 94.5264 608.232 96.7431 606.657 98.376C605.081 100.009 602.895 101.054 600.409 101.055C599.827 101.055 599.229 100.998 598.616 100.877L578.921 96.982L606.695 84.9386L606.517 84.5263L606.133 84.7591L606.517 84.5263Z" fill="black"/>
<path fill-rule="evenodd" clip-rule="evenodd" d="M605.132 81.3848L604.737 78.8996C603.683 72.2672 595.272 70.0179 591.047 75.2389L576.064 93.7574L605.132 81.3848Z" fill="#FCAA23"/>
<path fill-rule="evenodd" clip-rule="evenodd" d="M605.132 81.3849L605.577 81.3143L605.182 78.8289C604.838 76.6601 603.737 74.9175 602.254 73.7317C600.773 72.5445 598.912 71.9045 597.029 71.9042C595.878 71.904 594.717 72.1436 593.633 72.646C592.548 73.1481 591.539 73.9137 590.696 74.9562L574.579 94.8777L605.631 81.6608L605.577 81.3143L605.132 81.3849L604.957 80.9711L577.548 92.6372L591.395 75.5216C592.155 74.5843 593.049 73.9074 594.011 73.4616C594.973 73.0164 596.002 72.8031 597.029 72.8029C598.708 72.8027 600.375 73.3768 601.692 74.433C603.011 75.4906 603.982 77.0214 604.294 78.9702L604.69 81.4554L605.132 81.3849L604.957 80.9711L605.132 81.3849Z" fill="black"/>
<path fill-rule="evenodd" clip-rule="evenodd" d="M482.398 240.539V240.988H513.533C514.043 240.988 514.455 240.575 514.455 240.067V208.929C514.455 208.421 514.043 208.008 513.533 208.008H482.398C481.888 208.008 481.477 208.421 481.477 208.929V240.067C481.477 240.575 481.888 240.988 482.398 240.988V240.089L482.375 240.067V208.929L482.398 208.907H513.533L513.556 208.929V240.067L513.533 240.089H482.398V240.539Z" fill="black"/>
<path fill-rule="evenodd" clip-rule="evenodd" d="M388.772 544.722H429.833C430.08 544.722 430.283 544.52 430.283 544.272C430.283 544.023 430.08 543.823 429.833 543.823H388.772C388.522 543.823 388.322 544.023 388.322 544.272C388.322 544.52 388.522 544.722 388.772 544.722Z" fill="black"/>
<path fill-rule="evenodd" clip-rule="evenodd" d="M340.418 544.722H381.48C381.729 544.722 381.929 544.52 381.929 544.272C381.929 544.023 381.729 543.823 381.48 543.823H340.418C340.171 543.823 339.969 544.023 339.969 544.272C339.969 544.52 340.171 544.722 340.418 544.722Z" fill="black"/>
<path fill-rule="evenodd" clip-rule="evenodd" d="M441.577 544.722H616.154C616.403 544.722 616.603 544.52 616.603 544.272C616.603 544.023 616.403 543.823 616.154 543.823H441.577C441.328 543.823 441.128 544.023 441.128 544.272C441.128 544.52 441.328 544.722 441.577 544.722Z" fill="black"/>
<path fill-rule="evenodd" clip-rule="evenodd" d="M568.007 357.168C568.007 357.168 546.323 358.438 539.876 361.977C536.103 364.049 530.222 375.795 530.222 375.795L533.939 355.188L568.007 357.168Z" fill="#EA8B00"/>
</svg>
