<svg width="34" height="34" viewBox="0 0 34 34" fill="none" xmlns="http://www.w3.org/2000/svg">
<path fill-rule="evenodd" clip-rule="evenodd" d="M8.60001 0.199951C7.44021 0.199951 6.50001 1.14015 6.50001 2.29995V4.39995H4.40001C2.08042 4.39995 0.200012 6.28035 0.200012 8.59995V29.5999C0.200012 31.9195 2.08042 33.7999 4.40001 33.7999H29.6C31.9196 33.7999 33.8 31.9195 33.8 29.5999V8.59995C33.8 6.28035 31.9196 4.39995 29.6 4.39995H27.5V2.29995C27.5 1.14015 26.5598 0.199951 25.4 0.199951C24.2402 0.199951 23.3 1.14015 23.3 2.29995V4.39995H10.7V2.29995C10.7 1.14015 9.75981 0.199951 8.60001 0.199951ZM8.60001 10.7C7.44021 10.7 6.50001 11.6402 6.50001 12.8C6.50001 13.9597 7.44021 14.9 8.60001 14.9H25.4C26.5598 14.9 27.5 13.9597 27.5 12.8C27.5 11.6402 26.5598 10.7 25.4 10.7H8.60001Z" fill="#14597A"/>
</svg>
