<svg width="24" height="24" viewBox="0 0 24 24" fill="none" xmlns="http://www.w3.org/2000/svg">
<path d="M12.18 19.61C13.7047 19.6258 15.1996 19.1881 16.475 18.3523C17.7503 17.5166 18.7484 16.3206 19.3424 14.9163C19.9364 13.5121 20.0996 11.9629 19.8112 10.4657C19.5227 8.96845 18.7957 7.59077 17.7225 6.50768C16.6493 5.42459 15.2783 4.68499 13.7838 4.38286C12.2893 4.08073 10.7387 4.2297 9.329 4.81085C7.91935 5.392 6.71427 6.3791 5.86689 7.6467C5.01952 8.91431 4.56811 10.4052 4.57001 11.93C4.56474 12.9341 4.75748 13.9294 5.13719 14.859C5.5169 15.7886 6.07614 16.6342 6.78293 17.3475C7.48972 18.0608 8.33018 18.6278 9.25626 19.016C10.1823 19.4042 11.1759 19.606 12.18 19.61V19.61Z" stroke="black" stroke-width="1.5" stroke-linecap="round" stroke-linejoin="round"/>
<path d="M12.18 12.66L10.24 11.35" stroke="black" stroke-width="1.5" stroke-linecap="round" stroke-linejoin="round"/>
<path d="M15.23 10.46L12.18 12.66" stroke="black" stroke-width="1.5" stroke-linecap="round" stroke-linejoin="round"/>
<path d="M19.72 8.99998C20.2796 8.72223 20.7293 8.2641 20.9966 7.69947C21.2639 7.13484 21.3333 6.49663 21.1935 5.88775C21.0537 5.27888 20.7129 4.73484 20.2261 4.34337C19.7392 3.9519 19.1347 3.73582 18.51 3.72998C18.0805 3.72959 17.657 3.82978 17.2732 4.02253C16.8894 4.21529 16.5561 4.49525 16.3 4.83998" stroke="black" stroke-width="1.66" stroke-linecap="round" stroke-linejoin="round"/>
<path d="M7.7 4.83997C7.36027 4.35576 6.87347 3.99399 6.31184 3.80836C5.75022 3.62273 5.14371 3.62314 4.58233 3.80951C4.02095 3.99589 3.53463 4.35831 3.19554 4.84297C2.85646 5.32764 2.68268 5.90872 2.7 6.49997C2.69663 7.02417 2.84369 7.53833 3.12375 7.98145C3.4038 8.42457 3.80509 8.77806 4.28 8.99997" stroke="black" stroke-width="1.66" stroke-linecap="round" stroke-linejoin="round"/>
<path d="M7.61 18.07L5.33 20.36" stroke="black" stroke-width="1.5" stroke-linecap="round" stroke-linejoin="round"/>
<path d="M16.69 18.07L18.97 20.36" stroke="black" stroke-width="1.5" stroke-linecap="round" stroke-linejoin="round"/>
</svg>
