<svg width="24" height="24" viewBox="0 0 24 24" fill="none" xmlns="http://www.w3.org/2000/svg">
<path d="M21.25 13.25C21.2513 13.5757 21.1885 13.8985 21.065 14.1999C20.9416 14.5013 20.7601 14.7754 20.5307 15.0066C20.3013 15.2378 20.0287 15.4216 19.7283 15.5474C19.4279 15.6733 19.1057 15.7387 18.78 15.74V18.46C18.7866 18.7904 18.7275 19.1187 18.6059 19.426C18.4844 19.7332 18.3029 20.0132 18.0721 20.2496C17.8413 20.486 17.5657 20.6741 17.2615 20.8029C16.9572 20.9318 16.6304 20.9988 16.3 21H13.23C13.23 20.3449 12.9698 19.7167 12.5065 19.2535C12.0433 18.7903 11.4151 18.53 10.76 18.53C10.1049 18.53 9.47665 18.7903 9.01344 19.2535C8.55022 19.7167 8.28999 20.3449 8.28999 21H5.22999C4.90215 20.9987 4.57779 20.9327 4.27554 20.8057C3.97328 20.6788 3.69908 20.4933 3.46866 20.2601C3.23824 20.0269 3.05614 19.7505 2.93281 19.4467C2.80948 19.143 2.74735 18.8179 2.74999 18.49V15.77C3.41303 15.77 4.04892 15.5067 4.51776 15.0378C4.9866 14.569 5.24999 13.9331 5.24999 13.27C5.24999 12.607 4.9866 11.9711 4.51776 11.5023C4.04892 11.0334 3.41303 10.77 2.74999 10.77V8.00003C2.74867 7.67304 2.81178 7.34899 2.9357 7.04639C3.05962 6.74378 3.24193 6.46854 3.47222 6.23639C3.70251 6.00424 3.97627 5.81974 4.27787 5.69339C4.57947 5.56704 4.903 5.50134 5.22999 5.50003H8.28999C8.28999 4.84495 8.55022 4.21669 9.01344 3.75348C9.47665 3.29026 10.1049 3.03003 10.76 3.03003C11.4151 3.03003 12.0433 3.29026 12.5065 3.75348C12.9698 4.21669 13.23 4.84495 13.23 5.50003H16.3C16.627 5.50134 16.9505 5.56704 17.2521 5.69339C17.5537 5.81974 17.8275 6.00424 18.0578 6.23639C18.288 6.46854 18.4704 6.74378 18.5943 7.04639C18.7182 7.34899 18.7813 7.67304 18.78 8.00003V10.72C19.1091 10.7213 19.4346 10.788 19.7377 10.9164C20.0407 11.0447 20.3151 11.2321 20.545 11.4676C20.7749 11.703 20.9556 11.9819 21.0767 12.2879C21.1977 12.594 21.2566 12.921 21.25 13.25V13.25Z" stroke="black" stroke-width="1.5" stroke-linecap="round" stroke-linejoin="round"/>
</svg>
